<svg width="347" height="246" viewBox="0 0 347 246" fill="none" xmlns="http://www.w3.org/2000/svg">
<path d="M252.5 65L241.5 80.5C236.3 87.8273 245.333 107.352 250.5 116.198C250.9 129.157 261.667 140.466 267 144.5M252.5 65L284 36C286.667 25 295.1 3 307.5 3C313.468 4.70522 321.327 22.4032 310.126 37.5M252.5 65C182.555 -9.81506 105.554 40.795 88.822 86M310.126 37.5C308.189 40.1098 305.684 42.6418 302.5 45L310.126 37.5ZM310.126 37.5C321.584 26.3333 343.3 11.4 338.5 41C338.404 43.4017 336.458 47.9188 330.691 53M330.691 53C326.452 56.7339 320.149 60.7725 311 64.5C317.127 61.8333 329.643 55.8 330.691 53ZM330.691 53C340.46 53.3333 354.6 59.9 333 83.5C330.685 85.3942 325.632 88.2851 319 89.6554M319 89.6554C315.128 90.4554 310.718 90.7372 306 90C309.333 90.2703 316.6 90.5797 319 89.6554ZM319 89.6554C327.167 92.9369 342.4 101.1 338 107.5C334.748 112.559 327.056 119.133 317 116.198M317 116.198C313.142 115.073 308.936 112.547 304.5 108C306.833 110.494 312.6 115.625 317 116.198ZM317 116.198C319.333 119.132 323.3 126.3 320.5 131.5C318.174 133.593 313.788 135.686 310.126 132.685M310.126 132.685C308.539 131.384 307.088 129.128 306 125.5C306.917 128.123 309.026 133.233 310.126 132.685ZM310.126 132.685C310.25 138.29 307.2 147.6 294 140C292.5 134.833 288.4 123.9 284 121.5C290.237 129.371 299.412 144.651 292 149.303M267 144.5C275 153.3 284.667 152.167 288.5 150.5C289.939 150.282 291.093 149.872 292 149.303M267 144.5C270.684 148.362 279.578 154.341 288.5 151.086M292 149.303C290.841 150.073 289.67 150.659 288.5 151.086M288.5 151.086C288.067 161.69 283.878 176.964 273.086 191M88.822 86C86.656 91.8519 85.5 97.6131 85.5 103C64.194 140.21 67.9333 163.708 74.2712 174M88.822 86C74.8813 81.5 46.3 73 43.5 75C29.8333 64.6667 2.6 47.8 3 63C1.66667 71.5 3.6 90.4 22 98M22 98C26 98.8333 34.3 100 35.5 98M22 98C16.1667 99.5 5.5 104.7 9.5 113.5C11.8456 117.721 17.4699 123.317 25.5 122.648M39 116.198C33.9867 120.473 29.452 122.319 25.5 122.648M25.5 122.648C22.8333 126.932 20.1 136.1 30.5 138.5C32.7815 139.261 36.5797 139.841 40.5 139.082M51 132C48.2392 136.338 44.3119 138.343 40.5 139.082M40.5 139.082C37.5 146.888 36.9 162 58.5 160C58.5141 164 61.6882 172.4 74.2712 174M74.2712 174C75.3106 175.688 76.4198 177.02 77.5 178C93.5 223.2 159.5 229.167 190.5 226.5C233.567 225.593 258.973 209.355 273.086 191M249.5 213C258.833 227.5 280.2 252.9 291 238.5C292.667 236.833 295.6 231.3 294 222.5C299 223 309.6 222.3 312 215.5C313.391 211.833 307.555 201.8 273.086 191M138.5 185.5C134.167 189.167 127.7 198 136.5 204M138.5 185.5C138.833 191.333 141.1 202.5 147.5 200.5M138.5 185.5C146.667 184.167 162.2 184.1 159 194.5M214.5 174C209.667 173.833 200.5 176.4 202.5 188M214.5 174C212.333 178.667 208.9 188.5 212.5 190.5M214.5 174C218.333 174.5 226 178 226 188" stroke="#58473D" stroke-width="5" stroke-linecap="round"/>
<path d="M145.5 68C141.5 67.6 138.833 74.8333 138 78.5C135.6 84.4937 141.333 81.664 144.5 79.5C145.3 79.9 153.5 78 157.5 77C161.9 77 161 74.6667 160 73.5C153.6 67.9 147.667 67.5 145.5 68Z" fill="#58473D" stroke="#58473D" stroke-width="3" stroke-linecap="round" stroke-linejoin="round"/>
<path d="M117.96 84.5991C113.16 78.9991 118.294 74.2658 121.46 72.5991C125.86 72.1991 126.627 76.4324 126.46 78.5991C126.06 84.9991 120.627 85.2658 117.96 84.5991Z" fill="#58473D"/>
<path d="M181.46 60.0991C173.46 56.4991 172.46 62.5991 172.96 66.0991C173.36 70.4991 178.794 71.2658 181.46 71.0991C189.06 67.4991 184.627 62.2658 181.46 60.0991Z" fill="#58473D"/>
<path d="M117.96 84.5991C113.16 78.9991 118.294 74.2658 121.46 72.5991C125.86 72.1991 126.627 76.4324 126.46 78.5991C126.06 84.9991 120.627 85.2658 117.96 84.5991Z" stroke="#58473D" stroke-width="3" stroke-linecap="round" stroke-linejoin="round"/>
<path d="M181.46 60.0991C173.46 56.4991 172.46 62.5991 172.96 66.0991C173.36 70.4991 178.794 71.2658 181.46 71.0991C189.06 67.4991 184.627 62.2658 181.46 60.0991Z" stroke="#58473D" stroke-width="3" stroke-linecap="round" stroke-linejoin="round"/>
</svg>
