<svg width="346" height="243" viewBox="0 0 346 243" fill="none" xmlns="http://www.w3.org/2000/svg">
<path d="M274.5 239C265.3 233 252.333 217.5 247 210.5L250.5 189L269.5 191C272.7 193.4 295 198 304 205.5C318.5 221 301 223 291.5 220.5C292.3 224.5 291.833 229.5 291.5 231.5C287.1 245.9 278.333 242.5 274.5 239Z" fill="#7A6258"/>
<path d="M305.18 206C302.18 203 276.68 192.333 262.68 188C259.48 190.4 268.347 194.667 273.18 196.5C275.58 204.9 281.847 205.333 284.68 204.5C284.28 208.1 290.847 209 294.18 209C294.18 211.4 298.18 212 300.18 212C300.58 217.2 306.68 217 309.18 216C311.68 212 307.18 208 305.18 206Z" fill="#EFE3D7"/>
<path d="M250 215.522C248.855 214.022 245.167 208.189 244 205.022C246.8 201.422 251.5 208.189 253.5 212.022C262.3 211.622 263.833 217.522 263.5 220.522C270.7 220.042 272.5 224.989 272.5 227.522C278.5 228.322 278 232.522 276.5 233.022C280.1 233.022 281.333 235.689 281.5 237.022C285.1 236.622 286.667 238.522 287 239.522C280.6 250.722 259.667 228.189 250 215.522Z" fill="#EFE3D7"/>
<path d="M50.2673 75.6138C50.6673 76.4138 74.7673 82.2804 86.7673 85.1138C95.1674 87.9138 74.7673 172.114 66.7673 170.114C58.7673 168.114 56.6007 160.947 56.7673 158.114C50.3673 160.114 44.434 156.947 42.2673 155.114C36.6674 152.314 37.6007 142.614 38.7673 138.114C32.7673 139.714 27.6007 137.447 25.7673 136.114C17.7673 129.714 21.434 124.114 24.2673 122.114C10.2674 120.514 6.76735 113.447 6.76735 110.114C3.96735 100.914 15.934 97.6137 22.2673 97.1137C14.6673 95.5137 7.43401 87.7804 4.76735 84.1137C-1.63265 75.7137 -0.232653 63.6137 1.26735 58.6137C2.06735 51.4137 13.2673 56.6137 18.7673 60.1137C26.3673 62.5137 37.2673 70.4471 41.7673 74.1138C42.9673 73.3138 47.934 74.7804 50.2673 75.6138Z" fill="#FBFAF6"/>
<path d="M84.79 92L50.29 78C48.29 88.8 57.1234 99.5 61.79 103.5C58.19 109.5 63.29 109.667 66.29 109C65.09 122.6 68.79 121 70.79 118.5C70.79 120.1 72.79 120.167 73.79 120C80.59 117.6 83.9567 100.333 84.79 92Z" fill="#EDE6DC"/>
<path d="M64.2032 86.1788C59.8032 90.9788 76.0365 92.5121 84.7032 92.6788C89.2032 91.5121 96.0032 88.3788 87.2032 85.1788C78.4032 81.9788 60.8698 78.1788 53.2032 76.6788C48.0032 75.0788 48.7032 76.6788 49.7032 77.6788C50.1032 82.4788 59.5365 85.3454 64.2032 86.1788Z" fill="#685245"/>
<path fill-rule="evenodd" clip-rule="evenodd" d="M20.5 96.5C20.5 95.9477 23.4477 95 24 95C24 95 37.098 95.1767 37.598 95.1767C38.0979 95.1767 39.098 95.6767 39.098 95.6767C39.098 95.6767 40.098 97.1767 38.098 97.6767C36.098 98.1767 25.598 97.5 25 97.5C24.402 97.5 20.5 97.0523 20.5 96.5Z" fill="#CCC9C4"/>
<path fill-rule="evenodd" clip-rule="evenodd" d="M57.6766 118.708C58.1601 118.975 58.4603 120.6 58.1935 121.084C54.1137 128.478 50.5505 131.819 46.6935 134.584C44.7662 135.965 41.703 136.923 40.5 137.5C39.8984 137.789 37.9565 138.318 37.9075 138.318C37.9075 138.318 36.3609 138.61 36.1935 138.084C36.0262 137.558 37.3634 136.799 37.8887 136.631L37.8909 136.631L37.9072 136.625C37.9232 136.62 37.9495 136.611 37.9856 136.598C38.0579 136.573 38.1694 136.532 38.3168 136.474C38.6117 136.358 39.05 136.175 39.6047 135.909C40.7142 135.376 42.3707 133.89 44.1935 132.584C47.8364 129.973 50.1935 128.084 54.6935 121.084C54.9603 120.6 57.193 118.441 57.6766 118.708Z" fill="#D1CDC4"/>
<path fill-rule="evenodd" clip-rule="evenodd" d="M22.0002 121.52C21.8084 121.002 23.5482 120.027 24.0659 119.835L24.067 119.835L24.0728 119.833L24.0987 119.823C24.1224 119.814 24.1588 119.8 24.2074 119.781C24.3045 119.744 24.7225 119.597 24.9135 119.52C25.2955 119.366 26.3959 118.926 27.1078 118.61C28.5318 117.979 29.7432 117.318 32.1221 116.02C37.4135 112.084 41.9135 108.648 48.4135 104.084C48.8126 103.702 49.7544 103.683 50.1361 104.082C50.5179 104.481 50.5352 106.036 50.1361 106.417C44.3036 111.996 41.4135 113.584 35.9135 117.084C32.9135 119.52 30.4774 120.123 29.0108 120.773C28.2773 121.098 26.9014 121.549 26.5002 121.711C26.2996 121.792 25 122 25 122C24.8984 122.104 24.2074 122.104 24.2074 122.104C24 122 22.192 122.038 22.0002 121.52Z" fill="#DFD8D2"/>
<g filter="url(#filter0_d_2_56)">
<path d="M68.6187 140.424C67.0187 126.424 77.6187 108.924 83.1187 101.924C78.7187 99.5239 83.2853 95.9239 86.1187 94.4239C81.3187 94.0239 85.452 90.2572 88.1187 88.4239C83.7187 85.2239 87.6187 84.0906 90.1187 83.9239C89.7187 79.5239 92.952 75.4239 94.6187 73.9239C90.6187 73.1239 96.2854 68.5906 99.6187 66.4239C97.2187 66.4239 99.952 63.4239 101.619 61.9239C96.8187 61.9239 102.619 58.5906 106.119 56.9239C111.319 49.7239 122.285 43.5906 127.119 41.4239C129.919 36.2239 135.285 36.2572 137.619 36.9239C137.619 33.3239 142.285 33.7572 144.619 34.4239C150.619 28.4239 152.452 29.2572 152.619 30.4239C157.419 27.6239 158.285 29.5906 158.119 30.9239C165.719 27.7239 167.285 29.5906 167.119 30.9239C183.119 27.9239 183.785 29.4239 186.119 31.4239C195.319 30.6239 197.285 32.7572 197.119 33.9239C204.319 33.5239 214.785 38.0906 219.119 40.4239C227.919 39.2239 228.119 41.9239 227.119 43.4239C231.519 43.4239 231.285 45.0906 230.619 45.9239C237.419 47.1239 236.452 49.7572 235.119 50.9239C240.319 51.3239 241.619 56.0906 241.619 58.4239C251.219 56.8239 251.285 59.4239 250.119 60.9239L288.619 138.924C295.419 140.124 292.119 143.424 289.619 144.924C293.619 148.124 289.619 150.257 287.119 150.924C289.119 154.924 289.119 159.424 285.619 159.424C286.019 164.624 283.452 166.591 282.119 166.924C280.619 182.924 275.452 181.591 272.119 185.424C270.919 192.224 266.952 193.924 265.119 193.924C264.319 199.524 259.785 201.257 257.619 201.424C255.619 206.224 250.785 207.424 248.619 207.424C248.219 210.224 243.785 211.591 241.619 211.924C240.419 216.324 233.452 216.424 230.119 215.924C226.519 221.524 218.952 220.591 215.619 219.424C212.819 223.824 207.452 222.591 205.119 221.424C202.319 225.024 197.285 223.924 195.119 222.924C193.519 226.524 188.785 224.757 186.619 223.424C179.419 227.024 160.285 224.924 151.619 223.424C148.419 224.624 145.285 223.591 144.119 222.924C140.519 224.924 136.285 222.091 134.619 220.424C126.619 221.224 120.619 217.091 118.619 214.924C115.419 216.924 113.285 213.424 112.619 211.424C109.819 214.224 108.119 212.591 107.619 211.424C103.619 213.024 102.285 209.757 102.119 207.924C92.9187 205.924 77.6187 184.924 78.1187 177.924C74.1187 179.524 73.7853 175.924 74.1187 173.924C59.7187 170.724 63.7853 158.591 67.6187 152.924C62.0187 149.724 65.952 143.257 68.6187 140.424Z" fill="url(#paint0_linear_2_56)"/>
</g>
<path d="M144.926 211.5C130.926 213.1 132.093 201.5 134.426 195.5C140.426 185.5 152.593 184.667 157.926 185.5C165.526 172.7 170.426 176.167 171.926 179.5C175.926 173.5 182.259 177.667 184.926 180.5C186.926 177.7 190.093 180 191.426 181.5C190.226 172.3 195.926 173.333 198.926 175C203.726 172.2 206.926 175.5 207.926 177.5C208.726 172.7 222.259 177.5 228.926 180.5C230.526 174.1 239.593 174.167 243.926 175C243.526 170.6 250.759 167.5 254.426 166.5C250.026 162.1 254.259 152.333 256.926 148C250.926 142 255.759 136.5 258.926 134.5C251.726 126.5 255.926 124.167 258.926 124L283.926 136.5C285.526 139.3 281.926 143 279.926 144.5C284.726 152.9 279.926 158 276.926 159.5C278.526 163.5 273.593 169.5 270.926 172C270.926 177.2 265.593 179.833 262.926 180.5C261.326 189.7 255.259 191 252.426 190.5C253.626 195.3 244.259 198.5 239.426 199.5C240.626 202.7 231.593 205.167 226.926 206C224.926 212 217.093 211.167 213.426 210C213.026 214 206.926 213.667 203.926 213C199.926 215.4 195.926 214 194.426 213C190.826 215.4 186.593 214 184.926 213C184.926 217 177.926 215.333 174.426 214C168.826 214.8 164.426 210.333 162.926 208C161.326 214 150.259 212.833 144.926 211.5Z" fill="#EBE4DA"/>
<path d="M133.313 204C127.313 198.8 130.813 189.167 133.313 185C134.312 186.332 134.918 184.985 135.189 183.727C135.17 183.554 135.208 183.316 135.313 183C135.285 183.224 135.244 183.474 135.189 183.727C135.312 184.869 137.866 183.158 139.313 182C139.313 184 142.313 182.833 143.813 182C143.813 183.6 146.813 182.667 148.313 182C153.113 182.8 156.98 187.333 158.313 189.5C159.113 195.9 156.646 195.5 155.313 194.5C152.113 190.1 146.313 188.333 143.813 188C140.313 189 147.313 199.222 146.313 200C142.713 202.8 138.146 195.833 136.313 192V201C136.313 205 134.313 204.667 133.313 204Z" fill="#6B4F43"/>
<path d="M199.087 187C195.087 179.4 203.087 173.167 207.587 171C208.787 172.6 210.087 171 210.587 170C211.787 172 213.753 171.167 214.587 170.5C215.787 172.9 218.087 172.833 219.087 172.5C223.487 172.9 225.253 181.667 225.587 186C225.187 191.6 222.753 189 221.587 187C221.087 185.5 220.42 181.833 219.587 180.5C216.787 175.3 214.753 178.333 214.087 180.5C214.087 188.9 212.087 190.667 211.087 190.5C207.487 192.1 207.253 183.5 207.587 179C205.987 177.8 203.587 182.167 202.587 184.5C201.787 188.9 199.92 188 199.087 187Z" fill="#6B4F43"/>
<path d="M142.22 67.2863C139.42 66.8863 136.387 74.453 135.22 78.2863C134.232 81.0863 136.808 81.453 138.22 81.2863C139.72 80.1196 142.22 78.7863 143.22 78.2863C143.257 78.2678 143.302 78.336 143.375 78.3486C145.72 78.2863 148.557 77.4043 150.72 76.7863C151.52 76.3863 155.72 76.2863 157.72 76.2863C161.32 75.4863 159.887 73.2863 158.72 72.2863L153.22 69.7863C147.62 66.5863 143.553 66.7863 142.22 67.2863Z" fill="#665247"/>
<path d="M124.938 76.7041C123.938 67.7041 116.438 71.204 114.938 74.7041C113.224 78.7041 113.938 82.2041 116.438 83.2041C123.938 84.7041 124.938 79.3707 124.938 76.7041Z" fill="#5C5248"/>
<path d="M122.675 74.5545C121.875 75.7545 117.675 75.5545 117.175 74.5545C116.375 72.9545 118.509 72.2212 119.675 72.0545C121.275 71.6545 123.175 73.5545 122.675 74.5545Z" fill="#ECE2D8"/>
<path d="M117.468 82.3897C114.668 80.7897 116.468 78.3897 117.968 77.3897C123.968 75.8897 123.181 79.1144 122.968 80.3897C122.568 82.7897 119.135 82.7231 117.468 82.3897Z" fill="#775D4E"/>
<path d="M121 79.4724C119.4 78.2724 118.333 79.6391 118 80.4724C118 81.6724 119.333 81.9724 120 81.9724C121.6 81.1724 121.333 79.9724 121 79.4724Z" fill="#A89183"/>
<path d="M177.637 57.0947C171.237 56.2947 170.637 60.7613 171.137 63.0947C171.994 67.0947 172.102 66.8536 173.137 68.0947C175.637 71.0947 180.137 70.0947 182.637 68.5947C187.837 62.5947 181.47 58.428 177.637 57.0947Z" fill="#58473D"/>
<path d="M175.169 58C172.769 58.4 172.836 60.5 173.169 61.5C173.969 63.1 176.502 61.8333 177.669 61C180.169 59.5 177.002 58 175.169 58Z" fill="#F0E5DF"/>
<path d="M176.753 64.7443C174.253 66.7443 174.92 67.911 175.753 68.7443C177.353 69.9443 180.087 68.911 181.253 68.2443C184.053 67.0443 183.42 64.0777 182.753 62.7443C181.553 60.7443 178.253 63.2443 176.753 64.7443Z" fill="#6C5545"/>
<path d="M180.54 65.1752C178.14 64.3752 177.873 66.5085 178.04 67.6752C178.44 68.4752 179.54 68.3418 180.04 68.1752C182.04 66.9752 181.207 65.6752 180.54 65.1752Z" fill="#AA9081"/>
<g filter="url(#filter1_d_2_56)">
<path d="M282.318 33.3829C278.969 42.547 246.295 62.481 239.469 79.547C237.069 89.947 244.469 107.547 248.469 115.047C244.069 123.047 259.635 138.38 267.969 145.047C287.169 157.447 291.635 145.547 291.469 138.047C302.469 147.547 309.969 136.047 308.469 132.547C308.642 132.576 308.813 132.602 308.981 132.627C323.41 134.714 320.894 120.489 314.469 115.547C319.269 116.747 324.135 115.714 325.969 115.047C349.169 103.847 328.635 93.047 315.469 89.047C333.869 84.647 340.469 72.2137 341.469 66.547C343.069 52.547 333.802 51.3804 328.969 52.547C332.969 48.147 335.302 43.3804 335.969 41.547C339.569 16.347 325.469 22.7137 317.969 29.047L308.469 37.047C315.269 29.047 313.635 15.047 311.969 9.04702C306.769 -2.95298 298.469 3.04702 294.969 7.54702C292.569 7.54702 285.635 24.547 282.469 33.047C282.439 33.1462 282.388 33.2583 282.318 33.3829Z" fill="#FBFAF6"/>
</g>
<path d="M250.796 117.799C233.596 100.199 236.796 71.799 242.796 75.299C250.962 68.1324 268.096 53.499 271.296 52.299C274.496 51.099 275.962 53.799 276.296 55.299C281.096 61.699 272.296 71.299 267.296 75.299C280.496 79.6991 270.462 89.799 263.796 94.299C269.396 101.499 264.462 107.966 261.296 110.299C262.096 121.099 254.629 119.799 250.796 117.799Z" fill="#EDE6DC"/>
<path d="M245.434 70C237.834 78.4 244.601 77.1667 248.934 75.5C262.134 68.3 272.768 57.1667 276.434 52.5C283.234 45.7 281.268 44.6667 279.434 45C283.834 38.6 282.268 35.6667 280.934 35C274.534 43.4 269.5 46.5 265 51C256.6 57.4 248.601 66.3333 245.434 70Z" fill="#825F53"/>
<path fill-rule="evenodd" clip-rule="evenodd" d="M309 36.0271C309.414 36.393 307.866 38.6134 307.5 39.0271C298.147 49.6009 291.332 52.5618 286.5 53.7697C285.964 53.9036 282.164 54.3054 282.03 53.7697C281.896 53.2339 282.222 52.6909 282.758 52.557C287.26 51.4315 302 43.0271 304.5 39.5271C304.866 39.1135 308.587 35.6612 309 36.0271Z" fill="#B8B0A5"/>
<path fill-rule="evenodd" clip-rule="evenodd" d="M319.329 58.7551C313.193 62.1538 304.478 65.9967 294.148 67.6557C293.603 67.7433 293.09 67.3722 293.002 66.8269C292.915 66.2816 295.444 65.2542 295.99 65.1667C305.99 62.1667 304.99 63.1667 310.99 60.1667C313.989 58.5056 323.731 53.7898 325.358 52.6614C326.171 52.0971 326.798 51.6392 327.228 51.3244L327.265 51.2977C327.46 51.155 327.622 51.0363 327.738 50.9552C327.796 50.9146 327.864 50.8679 327.926 50.8303C327.95 50.8161 328.018 50.7756 328.103 50.7414C328.135 50.7286 328.252 50.6817 328.409 50.6696C328.524 50.6608 329.704 49.5996 329.99 50.1667C330.238 50.6598 329.433 52.3126 328.94 52.5613C328.93 52.5659 328.921 52.5705 328.912 52.5748C328.904 52.5799 328.896 52.5858 328.887 52.5924C328.788 52.6617 328.64 52.7699 328.431 52.9226L328.409 52.9388C327.975 53.2559 325.824 55.0879 324.99 55.6667C323.321 56.8243 322.4 57.0545 319.329 58.7551ZM327.597 52.1185C327.709 52.3407 327.892 52.503 328.105 52.5915C327.924 52.5199 327.729 52.3818 327.597 52.1185Z" fill="#BDB9AD"/>
<path fill-rule="evenodd" clip-rule="evenodd" d="M292.077 86.1509C292.383 85.6914 295.949 86.3993 296.409 86.7056C297.909 87.2056 299.103 87.0672 302.409 87.5377C305.667 88.0014 307.001 88.1042 313.346 87.7076C313.898 87.6731 317.909 86.7056 317.409 88.2056C315.909 89.7037 314.022 89.6692 313.471 89.7037C307.017 90.1071 303.326 89.6919 299.909 89.2056C296.54 88.7261 294.409 88.7056 292.909 87.7056C292.449 87.3993 291.77 86.6105 292.077 86.1509Z" fill="#BFB6AD"/>
<path fill-rule="evenodd" clip-rule="evenodd" d="M293.15 99.3348C293.952 98.2556 297.509 100.102 297.952 100.431L304.952 105.931L311.952 111.431C312.395 111.761 314.926 114.125 314.255 115.028C313.583 115.931 310.895 114.261 310.452 113.931L302.452 108.931L295.452 103.931C295.009 103.602 292.347 100.414 293.15 99.3348Z" fill="#DBD7CE"/>
<path fill-rule="evenodd" clip-rule="evenodd" d="M297.062 115.01C297.519 114.7 302.813 121.381 303.124 121.838L307.124 127.338C307.434 127.795 308.581 130.528 308.124 130.838C307.667 131.148 305.434 128.795 305.124 128.338L299.124 119.838C298.813 119.381 296.605 115.321 297.062 115.01Z" fill="#D1CEC7"/>
<path fill-rule="evenodd" clip-rule="evenodd" d="M280.798 119.386C281.13 118.96 281.759 118.873 282.202 119.193C285.6 121.643 286.666 124.407 288.122 127.681C289.569 130.938 291.446 134.778 291.626 136.729C292.336 141.237 292.01 144.536 290.853 146.844C289.663 149.219 287.653 150.432 285.342 150.838C283.084 151.234 280.554 150.863 278.175 150.163C275.781 149.459 273.453 148.395 271.559 147.319L271.552 147.315L271.545 147.311C258.835 139.822 251.054 129.312 249.5 124C249.35 123.487 248.967 122.644 249.5 122.5C250.033 122.356 251.5 124 251.5 125C256 134 261.535 135.879 273.574 144.56C275.357 145.572 276.88 146.193 279.092 146.844C281.931 146.844 282.295 147.163 284.108 146.844C285.342 146.627 286.617 145.663 287.62 144.56C288.122 142.631 289.63 143.113 289.638 136.989L289.633 136.958L289.63 136.927C289.472 135.178 285.479 129.799 284.108 126.716C282.738 123.632 284.022 122.916 280.998 120.736C280.555 120.417 280.465 119.812 280.798 119.386Z" fill="#C7C0B8"/>
<defs>
<filter id="filter0_d_2_56" x="58" y="29" width="236.657" height="204.412" filterUnits="userSpaceOnUse" color-interpolation-filters="sRGB">
<feFlood flood-opacity="0" result="BackgroundImageFix"/>
<feColorMatrix in="SourceAlpha" type="matrix" values="0 0 0 0 0 0 0 0 0 0 0 0 0 0 0 0 0 0 127 0" result="hardAlpha"/>
<feOffset dx="-2" dy="4"/>
<feGaussianBlur stdDeviation="2"/>
<feComposite in2="hardAlpha" operator="out"/>
<feColorMatrix type="matrix" values="0 0 0 0 0 0 0 0 0 0 0 0 0 0 0 0 0 0 0.25 0"/>
<feBlend mode="normal" in2="BackgroundImageFix" result="effect1_dropShadow_2_56"/>
<feBlend mode="normal" in="SourceGraphic" in2="effect1_dropShadow_2_56" result="shape"/>
</filter>
<filter id="filter1_d_2_56" x="235" y="0" width="110.652" height="156.429" filterUnits="userSpaceOnUse" color-interpolation-filters="sRGB">
<feFlood flood-opacity="0" result="BackgroundImageFix"/>
<feColorMatrix in="SourceAlpha" type="matrix" values="0 0 0 0 0 0 0 0 0 0 0 0 0 0 0 0 0 0 127 0" result="hardAlpha"/>
<feOffset dy="2"/>
<feGaussianBlur stdDeviation="2"/>
<feComposite in2="hardAlpha" operator="out"/>
<feColorMatrix type="matrix" values="0 0 0 0 0 0 0 0 0 0 0 0 0 0 0 0 0 0 0.25 0"/>
<feBlend mode="normal" in2="BackgroundImageFix" result="effect1_dropShadow_2_56"/>
<feBlend mode="normal" in="SourceGraphic" in2="effect1_dropShadow_2_56" result="shape"/>
</filter>
<linearGradient id="paint0_linear_2_56" x1="139.5" y1="39" x2="213" y2="216.5" gradientUnits="userSpaceOnUse">
<stop stop-color="#FBFAF6"/>
<stop offset="1" stop-color="#EAE3D9"/>
</linearGradient>
</defs>
</svg>
