<svg width="319" height="226" viewBox="0 0 319 226" fill="none" xmlns="http://www.w3.org/2000/svg">
<path d="M231.996 59.8285L221.914 74.0356C217.148 80.7517 225.427 98.6479 230.163 106.756C230.53 118.634 240.398 128.999 245.287 132.697M231.996 59.8285L260.869 33.2474C263.313 23.165 271.043 3 282.409 3C287.879 4.56299 295.082 20.7848 284.815 34.6223M231.996 59.8285C167.885 -8.74614 97.3072 37.6425 81.9709 79.0769M284.815 34.6223C283.041 37.0144 280.744 39.3352 277.826 41.4967L284.815 34.6223ZM284.815 34.6223C295.318 24.3871 315.223 10.6993 310.823 37.8304C310.735 40.0318 308.952 44.1721 303.665 48.8294M303.665 48.8294C299.78 52.2519 294.003 55.9536 285.617 59.3702C291.233 56.926 302.705 51.3959 303.665 48.8294ZM303.665 48.8294C312.62 49.135 325.58 55.1539 305.782 76.7854C303.66 78.5216 299.029 81.1713 292.95 82.4274M292.95 82.4274C289.401 83.1606 285.358 83.4189 281.034 82.7432C284.089 82.991 290.75 83.2746 292.95 82.4274ZM292.95 82.4274C300.435 85.4352 314.398 92.9174 310.365 98.7835C307.384 103.421 300.333 109.446 291.116 106.756M291.116 106.756C287.58 105.725 283.725 103.41 279.659 99.2418C281.798 101.528 287.083 106.23 291.116 106.756ZM291.116 106.756C293.255 109.446 296.891 116.015 294.324 120.782C292.193 122.7 288.172 124.619 284.815 121.868M284.815 121.868C283.361 120.676 282.031 118.607 281.034 115.282C281.875 117.687 283.808 122.37 284.815 121.868ZM284.815 121.868C284.93 127.005 282.134 135.539 270.035 128.573C268.66 123.837 264.902 113.816 260.869 111.616C266.586 118.83 274.995 132.836 268.202 137.1M245.287 132.697C252.62 140.763 261.48 139.725 264.994 138.197C266.312 137.997 267.371 137.621 268.202 137.1M245.287 132.697C248.663 136.237 256.815 141.717 264.994 138.734M268.202 137.1C267.139 137.806 266.066 138.342 264.994 138.734M264.994 138.734C264.596 148.453 260.757 162.453 250.865 175.319M81.9709 79.0769C79.9856 84.4406 78.926 89.7213 78.926 94.6589C59.3972 128.765 62.8246 150.303 68.6338 159.737M81.9709 79.0769C69.193 74.9522 42.9957 67.1612 40.4293 68.9944C27.9026 59.523 2.94079 44.0632 3.30743 57.9953C2.08531 65.7863 3.85738 83.1099 20.7226 90.0759M20.7226 90.0759C24.389 90.8398 31.9967 91.9091 33.0966 90.0759M20.7226 90.0759C15.3758 91.4508 5.5989 96.2171 9.26525 104.283C11.4152 108.152 16.5704 113.281 23.9307 112.668M36.3046 106.756C31.7095 110.674 27.553 112.366 23.9307 112.668M23.9307 112.668C21.4864 116.595 18.9811 124.998 28.5136 127.198C30.6049 127.895 34.0862 128.427 37.6795 127.731M47.3037 121.24C44.7732 125.216 41.1735 127.054 37.6795 127.731M37.6795 127.731C34.9297 134.886 34.3798 148.738 54.1781 146.904C54.1911 150.571 57.1004 158.27 68.6338 159.737M68.6338 159.737C69.5865 161.284 70.6032 162.505 71.5933 163.403C86.2587 204.833 146.754 210.302 175.168 207.858C214.643 207.027 237.929 192.143 250.865 175.319M229.247 195.484C237.801 208.774 257.386 232.056 267.285 218.857C268.813 217.329 271.501 212.257 270.035 204.191C274.618 204.65 284.334 204.008 286.533 197.775C287.808 194.414 282.459 185.218 250.865 175.319M127.505 170.277C123.533 173.638 117.606 181.735 125.672 187.234M127.505 170.277C127.811 175.624 129.888 185.859 135.755 184.026M127.505 170.277C134.991 169.055 149.228 168.994 146.295 178.527M197.166 159.737C192.736 159.584 184.334 161.937 186.167 172.569M197.166 159.737C195.18 164.014 192.033 173.027 195.333 174.86M197.166 159.737C200.68 160.195 207.707 163.403 207.707 172.569" stroke="#58473D" stroke-width="5" stroke-linecap="round"/>
<path d="M133.921 62.5783C130.255 62.2117 127.811 68.8417 127.047 72.2025C124.847 77.6962 130.102 75.1026 133.005 73.1191C133.738 73.4857 141.254 71.7442 144.92 70.8276C148.953 70.8276 148.128 68.6889 147.212 67.6196C141.346 62.4867 135.907 62.12 133.921 62.5783Z" fill="#58473D" stroke="#58473D" stroke-width="3" stroke-linecap="round" stroke-linejoin="round"/>
<path d="M108.679 77.7928C104.279 72.6599 108.984 68.3214 111.887 66.7938C115.92 66.4271 116.622 70.3074 116.47 72.2933C116.103 78.1595 111.123 78.4039 108.679 77.7928Z" fill="#58473D"/>
<path d="M166.882 55.3364C159.549 52.0367 158.633 57.6279 159.091 60.8359C159.458 64.8689 164.438 65.5716 166.882 65.4189C173.848 62.1192 169.785 57.3223 166.882 55.3364Z" fill="#58473D"/>
<path d="M108.679 77.7928C104.279 72.6599 108.984 68.3214 111.887 66.7938C115.92 66.4271 116.622 70.3074 116.47 72.2933C116.103 78.1595 111.123 78.4039 108.679 77.7928Z" stroke="#58473D" stroke-width="3" stroke-linecap="round" stroke-linejoin="round"/>
<path d="M166.882 55.3364C159.549 52.0367 158.633 57.6279 159.091 60.8359C159.458 64.8689 164.438 65.5716 166.882 65.4189C173.848 62.1192 169.785 57.3223 166.882 55.3364Z" stroke="#58473D" stroke-width="3" stroke-linecap="round" stroke-linejoin="round"/>
</svg>
