<svg xmlns="http://www.w3.org/2000/svg" xmlns:xlink="http://www.w3.org/1999/xlink" fill="none" version="1.1" width="32" height="32" viewBox="0 0 32 32"><g><g><path d="M31.56356484375,13.599879999999999C31.56356484375,13.599879999999999,28.37486484375,7.218629,28.37486484375,7.218629C28.27216484375,7.013028,28.12996484375,6.829664,27.95646484375,6.679006C27.78296484375,6.528349,27.58136484375,6.413348,27.36346484375,6.3405698C27.14546484375,6.2677919,26.91526484375,6.2386624,26.68596484375,6.25484403C26.45676484375,6.2710257,26.23296484375,6.3322015,26.02736484375,6.434879C26.02736484375,6.434879,22.83236484375,8.03238,22.83236484375,8.03238C22.83236484375,8.03238,16.19106484375,6.2748793,16.19106484375,6.2748793C16.06566484375,6.24238036,15.93406484375,6.24238036,15.80856484375,6.2748793C15.80856484375,6.2748793,9.16734484375,8.03238,9.16734484375,8.03238C9.16734484375,8.03238,5.97359484375,6.434879,5.97359484375,6.434879C5.76793484375,6.332007,5.54401484375,6.2706761,5.31463484375,6.25439294C5.08525484375,6.2381098,4.85492484375,6.2671936,4.63678484375,6.3399814C4.41865484375,6.412769,4.21701484375,6.527834,4.04337484375,6.678598C3.86973484375,6.829362,3.72751484375,7.012869,3.62484484375,7.218629C3.62484484375,7.218629,0.43609484374999996,13.599879999999999,0.43609484374999996,13.599879999999999C0.22863884375,14.01496,0.19453054375,14.49543,0.34127064375,14.93565C0.48801084375000003,15.37587,0.80358384375,15.73979,1.21859484375,15.94738C1.21859484375,15.94738,4.61234484375,17.6449,4.61234484375,17.6449C4.61234484375,17.6449,11.56356484375,22.6099,11.56356484375,22.6099C11.63896484375,22.6642,11.72366484375,22.704,11.81356484375,22.7274C11.81356484375,22.7274,19.81356484375,24.7274,19.81356484375,24.7274C19.87446484375,24.7425,19.93706484375,24.7501,19.99986484375,24.7499C20.19866484375,24.7497,20.38936484375,24.6706,20.52986484375,24.5299C20.52986484375,24.5299,27.44356484375,17.6161,27.44356484375,17.6161C27.44356484375,17.6161,30.78106484375,15.94738,30.78106484375,15.94738C31.19606484375,15.73979,31.51166484375,15.37587,31.65846484375,14.93565C31.80516484375,14.49543,31.77106484375,14.01496,31.56356484375,13.599879999999999ZM24.93856484375,17.9949C24.93856484375,17.9949,20.46356484375,14.40988,20.46356484375,14.40988C20.31926484375,14.29437,20.13736484375,14.236229999999999,19.95286484375,14.24662C19.76826484375,14.257,19.59406484375,14.33517,19.46356484375,14.46613C17.13236484375,16.8149,14.52606484375,16.5186,12.86486484375,15.45613C12.83216484375,15.43599,12.80456484375,15.4086,12.78426484375,15.37609C12.76386484375,15.34357,12.75126484375,15.3068,12.74736484375,15.26863C12.74286484375,15.23363,12.74636484375,15.19808,12.75736484375,15.16456C12.76836484375,15.13105,12.78676484375,15.10041,12.81106484375,15.07488C12.81106484375,15.07488,18.30356484375,9.749880000000001,18.30356484375,9.749880000000001C18.30356484375,9.749880000000001,22.53606484375,9.749880000000001,22.53606484375,9.749880000000001C22.53606484375,9.749880000000001,26.08736484375,16.8524,26.08736484375,16.8524C26.08736484375,16.8524,24.93856484375,17.9949,24.93856484375,17.9949ZM1.76359484375,14.46113C1.74292484375,14.39846,1.74786484375,14.33016,1.77734484375,14.27113C1.77734484375,14.27113,4.96734484375,7.88863,4.96734484375,7.88863C4.98831484375,7.8470200000000006,5.02048484375,7.8121,5.06024484375,7.7878C5.09999484375,7.76351,5.14575484375,7.7508,5.19234484375,7.75113C5.23095484375,7.75117,5.26903484375,7.76016,5.30359484375,7.77738C5.30359484375,7.77738,8.07984484375,9.16488,8.07984484375,9.16488C8.07984484375,9.16488,4.66484484375,15.99988,4.66484484375,15.99988C4.66484484375,15.99988,1.88859484375,14.61238,1.88859484375,14.61238C1.85863484375,14.5969,1.83211484375,14.57552,1.81063484375,14.54953C1.78915484375,14.52354,1.77315484375,14.49347,1.76359484375,14.46113ZM19.76986484375,23.1699C19.76986484375,23.1699,12.31986484375,21.3074,12.31986484375,21.3074C12.31986484375,21.3074,5.95734484375,16.7624,5.95734484375,16.7624C5.95734484375,16.7624,9.60484484375,9.468630000000001,9.60484484375,9.468630000000001C9.60484484375,9.468630000000001,15.99986484375,7.77613,15.99986484375,7.77613C15.99986484375,7.77613,17.84986484375,8.26613,17.84986484375,8.26613C17.70836484375,8.29364,17.57806484375,8.36185,17.47486484375,8.46238C17.47486484375,8.46238,11.76236484375,14.006129999999999,11.76236484375,14.006129999999999C11.57686484375,14.19149,11.43546484375,14.41617,11.34846484375,14.66355C11.26146484375,14.91094,11.23126484375,15.1747,11.25986484375,15.43535C11.28856484375,15.696,11.37546484375,15.94688,11.51416484375,16.16943C11.65286484375,16.392,11.83976484375,16.5805,12.06106484375,16.7211C14.58856484375,18.336100000000002,17.65486484375,18.032400000000003,20.03606484375,15.98488C20.03606484375,15.98488,23.87486484375,19.0624,23.87486484375,19.0624C23.87486484375,19.0624,19.76986484375,23.1699,19.76986484375,23.1699ZM30.23606484375,14.46113C30.22576484375,14.49233,30.20946484375,14.52119,30.18806484375,14.54607C30.16656484375,14.57095,30.14046484375,14.59136,30.11106484375,14.60613C30.11106484375,14.60613,27.33486484375,15.99988,27.33486484375,15.99988C27.33486484375,15.99988,23.91986484375,9.16488,23.91986484375,9.16488C23.91986484375,9.16488,26.69606484375,7.77738,26.69606484375,7.77738C26.72546484375,7.7626100000000005,26.75756484375,7.7538,26.79036484375,7.7514400000000006C26.82316484375,7.74908,26.85616484375,7.75322,26.88736484375,7.76363C26.91856484375,7.77392,26.94736484375,7.79025,26.97226484375,7.8117C26.99716484375,7.83315,27.01756484375,7.85929,27.03236484375,7.88863C27.03236484375,7.88863,30.22236484375,14.27113,30.22236484375,14.27113C30.25186484375,14.33016,30.25676484375,14.39846,30.23606484375,14.46113ZM16.23606484375,27.1811C16.187964843750002,27.374,16.06516484375,27.5399,15.89476484375,27.6424C15.72436484375,27.7448,15.52026484375,27.7754,15.32736484375,27.7274C15.32736484375,27.7274,10.11109484375,26.4236,10.11109484375,26.4236C10.02108484375,26.4006,9.93625484375,26.3607,9.86109484375,26.3061C9.86109484375,26.3061,6.56484484375,23.9549,6.56484484375,23.9549C6.48465484375,23.8974,6.41656484375,23.8247,6.36447484375,23.741C6.31237484375,23.6572,6.27728484375,23.564,6.26120484375,23.4667C6.22874484375,23.2701,6.27568484375,23.0687,6.39171484375,22.9068C6.50775484375,22.7448,6.68336484375,22.6356,6.87992484375,22.6031C6.97725484375,22.587,7.07679484375,22.5903,7.17286484375,22.6127C7.26893484375,22.6351,7.35965484375,22.6762,7.43984484375,22.7336C7.43984484375,22.7336,10.61356484375,24.9999,10.61356484375,24.9999C10.61356484375,24.9999,15.68986484375,26.2686,15.68986484375,26.2686C15.78566484375,26.2926,15.87576484375,26.3352,15.95506484375,26.3941C16.034364843749998,26.4529,16.101264843750002,26.5269,16.151864843749998,26.6117C16.20256484375,26.6965,16.23596484375,26.7904,16.25016484375,26.8881C16.26436484375,26.9859,16.25916484375,27.0854,16.23486484375,27.1811C16.23486484375,27.1811,16.23606484375,27.1811,16.23606484375,27.1811Z" fill="current" fill-opacity="1"/></g></g></svg>