<svg xmlns="http://www.w3.org/2000/svg" xmlns:xlink="http://www.w3.org/1999/xlink" fill="none" version="1.1" width="32" height="32" viewBox="0 0 32 32"><g><g><path d="M27.5085765625,22.1175C26.8010765625,20.9,25.7497765625,17.4662,25.7497765625,13C25.7497765625,10.41414,24.7225765625,7.93419,22.8940765625,6.10571C21.0655765625,4.27723,18.585676562499998,3.25,15.9997765625,3.25C13.4139265625,3.2500000000000004,10.9339765625,4.27723,9.1054965625,6.10571C7.2770165625,7.93419,6.2497865625,10.41414,6.2497865625,13C6.2497865625,17.4675,5.1972865625,20.9,4.4897865625,22.1175C4.3345558625,22.3833,4.2521862825,22.6854,4.2509897861,22.9932C4.2497932925,23.301,4.3298124625,23.6037,4.4829725625,23.8707C4.6361325625,24.1377,4.8570135625,24.3596,5.1233275625,24.514C5.3896365625,24.6684,5.6919665625,24.7498,5.9997865625,24.75C5.9997865625,24.75,11.309786562500001,24.75,11.309786562500001,24.75C11.4919465625,25.8618,12.0633765625,26.8727,12.9220265625,27.6021C13.7806765625,28.3315,14.8706765625,28.732,15.9972765625,28.732C17.123976562499998,28.732,18.213876562499998,28.3315,19.0725765625,27.6021C19.9311765625,26.8727,20.5025765625,25.8618,20.6847765625,24.75C20.6847765625,24.75,25.9997765625,24.75,25.9997765625,24.75C26.3073765625,24.7494,26.6093765625,24.6676,26.8753765625,24.5131C27.1413765625,24.3585,27.3618765625,24.1366,27.5146765625,23.8696C27.6675765625,23.6027,27.7473765625,23.3002,27.7460765625,22.9926C27.7447765625,22.685,27.6623765625,22.3831,27.5072765625,22.1175C27.5072765625,22.1175,27.5085765625,22.1175,27.5085765625,22.1175ZM15.9997765625,27.25C15.2683765625,27.2498,14.5584765625,27.0029,13.9848465625,26.5492C13.4111865625,26.0955,13.0073165625,25.4616,12.8385365625,24.75C12.8385365625,24.75,19.1610765625,24.75,19.1610765625,24.75C18.992276562500003,25.4616,18.588376562500002,26.0955,18.0147765625,26.5492C17.4410765625,27.0029,16.7311765625,27.2498,15.9997765625,27.25ZM26.2135765625,23.125C26.1929765625,23.1633,26.1622765625,23.1952,26.1247765625,23.2172C26.0872765625,23.2393,26.0444765625,23.2506,26.0010765625,23.25C26.0010765625,23.25,5.9997865625,23.25,5.9997865625,23.25C5.9563165625,23.2506,5.9135165625,23.2393,5.8760465625,23.2172C5.8385765625,23.1952,5.8078765625,23.1633,5.7872865625,23.125C5.7653465624999995,23.087,5.7537965625,23.0439,5.7537965625,23C5.7537965625,22.9561,5.7653465624999995,22.913,5.7872865625,22.875C6.733536562499999,21.25,7.749786562500001,17.4613,7.749786562500001,13C7.749786562500001,10.81196,8.6189765625,8.71354,10.1661565625,7.166370000000001C11.7133365625,5.61919,13.8117465625,4.75,15.9997765625,4.75C18.187776562499998,4.75,20.2862765625,5.61919,21.8333765625,7.166370000000001C23.3805765625,8.71354,24.2497765625,10.81196,24.2497765625,13C24.2497765625,17.46,25.2672765625,21.2437,26.2135765625,22.875C26.2354765625,22.913,26.2470765625,22.9561,26.2470765625,23C26.2470765625,23.0439,26.2354765625,23.087,26.2135765625,23.125Z" fill="current" fill-opacity="1"/></g></g></svg>