<svg xmlns="http://www.w3.org/2000/svg" xmlns:xlink="http://www.w3.org/1999/xlink" fill="none" version="1.1" width="32" height="32" viewBox="0 0 32 32"><g><g><path d="M27.725048631286622,21.9925C27.031248631286623,20.7975,26.00004863128662,17.4163,26.00004863128662,13C26.00004863128662,10.34784,24.94644863128662,7.8043,23.071048631286622,5.928929999999999C21.19574863128662,4.05357,18.65214863128662,3.000000000000001,16.00004863128662,3C13.34783863128662,3.0000000000000013,10.80429863128662,4.05357,8.92892863128662,5.928929999999999C7.0535686312866215,7.8043,5.999998631286621,10.34784,5.999998631286621,13C5.999998631286621,17.4175,4.967499631286621,20.7975,4.273749631286621,21.9925C4.096587931286621,22.2963,4.002667751286621,22.6415,4.001460419986621,22.9931C4.000253091286621,23.3448,4.091801531286621,23.6906,4.266873631286622,23.9956C4.441944631286621,24.3006,4.694349631286621,24.5541,4.998631631286621,24.7304C5.302908631286622,24.9068,5.648318631286621,24.9997,5.999998631286621,25C5.999998631286621,25,11.101248631286621,25,11.101248631286621,25C11.331968631286621,26.1289,11.94552863128662,27.1436,12.83816863128662,27.8722C13.730798631286621,28.6009,14.84774863128662,28.9989,16.00004863128662,28.9989C17.15224863128662,28.9989,18.26914863128662,28.6009,19.16184863128662,27.8722C20.054448631286622,27.1436,20.66804863128662,26.1289,20.898748631286622,25C20.898748631286622,25,26.00004863128662,25,26.00004863128662,25C26.351548631286622,24.9995,26.69684863128662,24.9064,27.000948631286622,24.73C27.30504863128662,24.5535,27.557248631286622,24.3,27.73214863128662,23.9951C27.90714863128662,23.6901,27.99854863128662,23.3444,27.99724863128662,22.9928C27.99604863128662,22.6412,27.90214863128662,22.2962,27.725048631286622,21.9925ZM16.00004863128662,27C15.37974863128662,26.9998,14.774848631286622,26.8074,14.26844863128662,26.4492C13.762138631286621,26.0911,13.37923863128662,25.5848,13.17249863128662,25C13.17249863128662,25,18.82754863128662,25,18.82754863128662,25C18.620748631286624,25.5848,18.23784863128662,26.0911,17.73154863128662,26.4492C17.225148631286622,26.8074,16.62024863128662,26.9998,16.00004863128662,27Z" fill="current" fill-opacity="1"/></g></g></svg>