<svg xmlns="http://www.w3.org/2000/svg" xmlns:xlink="http://www.w3.org/1999/xlink" fill="none" version="1.1" width="32" height="32" viewBox="0 0 32 32"><g><g><path d="M23,4C23,4,9,4,9,4C8.469570000000001,4.000000000000001,7.960859,4.210714,7.585786,4.585786C7.210714,4.960859,7.000000000000002,5.46957,7,6C7,6,7,28,7,28C7.0000887966,28.1785,7.0479345,28.3537,7.138572,28.5074C7.22921,28.6611,7.359337,28.7878,7.5154499999999995,28.8743C7.671562,28.9607,7.847972,29.0039,8.02637,28.9992C8.20477,28.9944,8.37866,28.9421,8.53,28.8475C8.53,28.8475,16,24.1787,16,24.1787C16,24.1787,23.4713,28.8475,23.4713,28.8475C23.6226,28.9418,23.7963,28.9939,23.9745,28.9984C24.1528,29.0029,24.3289,28.9598,24.4849,28.8733C24.6408,28.7869,24.7707,28.6603,24.8613,28.5068C24.9519,28.3532,24.9998,28.1783,25,28C25,28,25,6,25,6C25,5.46957,24.7893,4.960859,24.4142,4.585786C24.0391,4.210714,23.5304,4.000000000000002,23,4Z" fill="#DDA15F" fill-opacity="1"/></g></g></svg>