<svg xmlns="http://www.w3.org/2000/svg" xmlns:xlink="http://www.w3.org/1999/xlink" fill="none" version="1.1" width="32" height="32" viewBox="0 0 32 32"><g><g><path d="M23,4.25C23,4.25,9,4.25,9,4.25C8.53587,4.25,8.090752,4.434375,7.762563,4.762563C7.434375,5.090752,7.2500000422806,5.53587,7.2500000422806,6C7.2500000422806,6,7.2500000422806,28,7.2500000422806,28C7.2499550884,28.1339,7.285758,28.2654,7.353691,28.3808C7.4216239999999996,28.4961,7.51921,28.5912,7.636314,28.6562C7.753418,28.7211,7.88577,28.7535,8.019624,28.75C8.153478,28.7465,8.28395,28.7072,8.3975,28.6362C8.3975,28.6362,15.99875,23.8862,15.99875,23.8862C15.99875,23.8862,23.6025,28.6362,23.6025,28.6362C23.716,28.7072,23.8465,28.7465,23.9804,28.75C24.1142,28.7535,24.2466,28.7211,24.3637,28.6562C24.4808,28.5912,24.5784,28.4961,24.6463,28.3808C24.7142,28.2654,24.75,28.1339,24.75,28C24.75,28,24.75,6,24.75,6C24.75,5.53587,24.5656,5.090752,24.2374,4.762563C23.9092,4.434375,23.4641,4.25,23,4.25ZM23.25,26.6462C23.25,26.6462,16.396250000000002,22.3638,16.396250000000002,22.3638C16.27705,22.2893,16.139310000000002,22.2497,15.99875,22.2497C15.85818,22.2497,15.72045,22.2893,15.60125,22.3638C15.60125,22.3638,8.75,26.6462,8.75,26.6462C8.75,26.6462,8.75,6,8.75,6C8.75,5.9337,8.77634,5.87011,8.82322,5.82322C8.87011,5.77634,8.9337,5.75,9,5.75C9,5.75,23,5.75,23,5.75C23.0663,5.75,23.1299,5.77634,23.1768,5.82322C23.2237,5.87011,23.25,5.9337,23.25,6C23.25,6,23.25,26.6462,23.25,26.6462Z" fill="#343330" fill-opacity="1"/></g></g></svg>