<svg xmlns="http://www.w3.org/2000/svg" xmlns:xlink="http://www.w3.org/1999/xlink" fill="none" version="1.1" width="32" height="32" viewBox="0 0 32 32"><g><g><path d="M20.529994277954103,12.53C20.529994277954103,12.53,17.059994277954104,16,17.059994277954104,16C17.059994277954104,16,20.529994277954103,19.47,20.529994277954103,19.47C20.6036942779541,19.5387,20.662794277954102,19.6215,20.703794277954103,19.7135C20.744794277954103,19.8055,20.7667942779541,19.9048,20.7685942779541,20.0055C20.7703942779541,20.1062,20.7518942779541,20.2062,20.7140942779541,20.2996C20.676394277954103,20.393,20.620294277954102,20.4778,20.5489942779541,20.549C20.4777942779541,20.6203,20.392994277954102,20.6764,20.299594277954103,20.7141C20.2061942779541,20.7518,20.106194277954103,20.7704,20.005494277954103,20.7686C19.904794277954103,20.7668,19.8054942779541,20.7448,19.7134942779541,20.7038C19.621494277954103,20.6628,19.5386942779541,20.6037,19.4699942779541,20.53C19.4699942779541,20.53,15.999994277954102,17.060000000000002,15.999994277954102,17.060000000000002C15.999994277954102,17.060000000000002,12.530004277954102,20.53,12.530004277954102,20.53C12.3878242779541,20.6625,12.199774277954102,20.7346,12.005474277954102,20.7312C11.811174277954102,20.7277,11.625794277954101,20.649,11.488374277954101,20.5116C11.350964277954102,20.3742,11.2722542779541,20.1888,11.268824277954101,19.9945C11.265394277954101,19.8002,11.3375242779541,19.6122,11.470004277954102,19.47C11.470004277954102,19.47,14.939994277954101,16,14.939994277954101,16C14.939994277954101,16,11.470004277954102,12.53,11.470004277954102,12.53C11.3375242779541,12.38783,11.265394277954101,12.19978,11.268824277954101,12.00548C11.2722542779541,11.81118,11.350964277954102,11.62579,11.488374277954101,11.48838C11.625794277954101,11.35097,11.811174277954102,11.27225,12.005474277954102,11.26882C12.199774277954102,11.2654,12.3878242779541,11.33752,12.530004277954102,11.47C12.530004277954102,11.47,15.999994277954102,14.94,15.999994277954102,14.94C15.999994277954102,14.94,19.4699942779541,11.47,19.4699942779541,11.47C19.612194277954103,11.33752,19.800194277954102,11.2654,19.9944942779541,11.26882C20.188794277954102,11.27225,20.3741942779541,11.35097,20.511594277954103,11.48838C20.648994277954102,11.62579,20.7277942779541,11.81118,20.731194277954103,12.00548C20.734594277954102,12.19978,20.662494277954103,12.38783,20.529994277954103,12.53ZM28.7499942779541,16C28.7499942779541,18.5217,28.0021942779541,20.9868,26.6011942779541,23.0835C25.2002942779541,25.1802,23.2089942779541,26.8144,20.879194277954102,27.7795C18.549494277954103,28.7445,15.985894277954102,28.997,13.512594277954102,28.505C11.0393442779541,28.0131,8.767504277954101,26.7987,6.984384277954101,25.0156C5.201264277954102,23.2325,3.9869492779541016,20.9607,3.4949872779541016,18.4874C3.0030262779541017,16.0141,3.255518437954102,13.4505,4.220535277954101,11.12079C5.185554277954101,8.79103,6.819754277954102,6.7997499999999995,8.916474277954102,5.398759999999999C11.013204277954102,3.997774,13.478294277954102,3.2500000000000013,15.999994277954102,3.25C19.3802942779541,3.25396981,22.6209942779541,4.59854,25.0111942779541,6.988770000000001C27.4014942779541,9.379,28.7459942779541,12.61971,28.7499942779541,16ZM27.2499942779541,16C27.2499942779541,13.775,26.5901942779541,11.59989,25.3539942779541,9.749839999999999C24.1178942779541,7.89978,22.360894277954102,6.45784,20.3051942779541,5.6063600000000005C18.2494942779541,4.75487,15.987494277954102,4.5320800000000006,13.8051942779541,4.96617C11.622944277954101,5.40025,9.618394277954103,6.47171,8.045044277954101,8.04505C6.471704277954101,9.61839,5.400244277954101,11.62295,4.9661642779541015,13.8052C4.532084277954102,15.9875,4.754874277954102,18.249499999999998,5.606354277954102,20.3052C6.457844277954102,22.3609,7.899784277954102,24.1179,9.7498342779541,25.354C11.599884277954102,26.5902,13.774994277954102,27.25,15.999994277954102,27.25C18.982694277954103,27.2467,21.8421942779541,26.0604,23.9512942779541,23.9513C26.060394277954103,21.8422,27.246694277954102,18.9827,27.2499942779541,16Z" fill="current" fill-opacity="1"/></g></g></svg>