<svg xmlns="http://www.w3.org/2000/svg" xmlns:xlink="http://www.w3.org/1999/xlink" fill="none" version="1.1" width="32" height="32" viewBox="0 0 32 32"><g><g><path d="M29.000000476837158,16.00007109375C29.000500476837157,18.24447109375,28.419900476837157,20.45077109375,27.314700476837157,22.40427109375C26.209500476837157,24.35767109375,24.617400476837158,25.99177109375,22.69340047683716,27.14737109375C20.76930047683716,28.30287109375,18.57880047683716,28.94067109375,16.33520047683716,28.99857109375C14.091500476837158,29.05647109375,11.871070476837158,28.53237109375,9.890000476837159,27.47757109375C9.890000476837159,27.47757109375,5.633750476837158,28.89627109375,5.633750476837158,28.89627109375C5.281360476837158,29.01377109375,4.903200476837158,29.03087109375,4.5416604768371585,28.94557109375C4.180120476837159,28.86017109375,3.849484476837158,28.67587109375,3.586814476837158,28.41327109375C3.324144476837158,28.15057109375,3.139818476837158,27.81987109375,3.0544973768371584,27.45837109375C2.969176076837158,27.09687109375,2.9862308768371584,26.71867109375,3.103750476837158,26.36627109375C3.103750476837158,26.36627109375,4.522500476837158,22.11007109375,4.522500476837158,22.11007109375C3.595185476837158,20.36657109375,3.0772467768371583,18.43477109375,3.007997146837158,16.46127109375C2.9387474768371584,14.48777109375,3.320007476837158,12.52438109375,4.122840476837158,10.720211093749999C4.925670476837158,8.91603109375,6.128970476837158,7.31847109375,7.641400476837158,6.04878109375C9.153830476837157,4.7790810937499995,10.935640476837158,3.87063509375,12.851580476837158,3.39238309375C14.767500476837158,2.91413049375,16.76720047683716,2.87864709375,18.699000476837156,3.28862409375C20.63070047683716,3.69860209375,22.443600476837158,4.54326109375,24.000100476837158,5.7585010937500005C25.556600476837158,6.97374109375,26.815800476837158,8.52760109375,27.68220047683716,10.30216109375C28.54850047683716,12.07671109375,28.999200476837157,14.02527109375,29.000000476837158,16.00007109375Z" fill="current" fill-opacity="1"/></g></g></svg>