<svg xmlns="http://www.w3.org/2000/svg" xmlns:xlink="http://www.w3.org/1999/xlink" fill="none" version="1.1" width="32" height="32" viewBox="0 0 32 32"><g><g><path d="M16.00002279777527,3.2500000426024207C13.78972279777527,3.249536047581421,11.617312797775268,3.8236597615814207,9.69586279777527,4.916039761581421C7.774412797775269,6.0084297615814215,6.169942797775269,7.581549761581421,5.039852797775269,9.48106976158142C3.9097727977752683,11.38059976158142,3.2928980977752684,13.54129976158142,3.2497527477752683,15.75109976158142C3.2066073977752687,17.96099976158142,3.7386727977752687,20.144099761581423,4.7937527977752685,22.086299761581422C4.7937527977752685,22.086299761581422,3.3412498977752687,26.44499976158142,3.3412498977752687,26.44499976158142C3.2384206177752684,26.75329976158142,3.2234976977752687,27.08419976158142,3.2981538977752685,27.40059976158142C3.3728097977752687,27.71689976158142,3.5340947977752686,28.00619976158142,3.7639307977752683,28.23609976158142C3.9937677977752686,28.465899761581422,4.283072797775269,28.62719976158142,4.599422797775269,28.70179976158142C4.9157727977752685,28.77649976158142,5.246652797775269,28.761599761581422,5.555002797775268,28.65879976158142C5.555002797775268,28.65879976158142,9.913752797775269,27.20619976158142,9.913752797775269,27.20619976158142C11.619982797775268,28.132199761581422,13.515122797775268,28.656299761581423,15.454622797775269,28.73849976158142C17.39422279777527,28.82079976158142,19.326922797775268,28.45909976158142,21.10542279777527,27.680999761581422C22.88392279777527,26.90299976158142,24.461322797775267,25.72899976158142,25.717222797775268,24.24879976158142C26.973122797775268,22.76849976158142,27.874522797775267,21.02099976158142,28.35252279777527,19.13949976158142C28.83052279777527,17.25799976158142,28.872522797775268,15.29219976158142,28.47552279777527,13.39189976158142C28.078422797775268,11.49170976158142,27.252622797775267,9.707249761581421,26.06112279777527,8.174619761581422C24.869722797775268,6.641989761581421,23.344022797775267,5.401669761581421,21.60032279777527,4.548219761581421C19.85672279777527,3.694776761581421,17.94132279777527,3.250750836581421,16.00002279777527,3.2500000426024207ZM16.00002279777527,27.24999976158142C14.022422797775269,27.25049976158142,12.07965279777527,26.729599761581422,10.36750279777527,25.73999976158142C10.253362797775267,25.67439976158142,10.124152797775269,25.639499761581423,9.99250279777527,25.63879976158142C9.91180279777527,25.63919976158142,9.83166279777527,25.65229976158142,9.75500279777527,25.67749976158142C9.75500279777527,25.67749976158142,5.081252797775269,27.23499976158142,5.081252797775269,27.23499976158142C5.037202797775269,27.24969976158142,4.9899327977752685,27.25179976158142,4.944742797775269,27.24119976158142C4.899542797775268,27.23049976158142,4.858212797775268,27.20749976158142,4.825382797775268,27.174599761581423C4.792552797775269,27.14179976158142,4.769512797775269,27.10049976158142,4.7588427977752685,27.05529976158142C4.748182797775269,27.010099761581422,4.750312797775269,26.962799761581422,4.765002797775269,26.918799761581422C4.765002797775269,26.918799761581422,6.322502797775268,22.24999976158142,6.322502797775268,22.24999976158142C6.356202797775269,22.14909976158142,6.368052797775269,22.042199761581422,6.357282797775269,21.93639976158142C6.346502797775269,21.83059976158142,6.3133427977752685,21.72829976158142,6.260002797775268,21.63619976158142C5.0190727977752685,19.49259976158142,4.520272797775268,16.999399761581422,4.840992797775268,14.543299761581421C5.161702797775268,12.087259761581421,6.284012797775269,9.80569976158142,8.033782797775268,8.05259976158142C9.783562797775268,6.299499761581421,12.062982797775268,5.1728697615814205,14.51842279777527,4.847489761581421C16.97382279777527,4.5221097615814205,19.46802279777527,5.016179761581421,21.61402279777527,6.253039761581421C23.760022797775267,7.4898997615814205,25.43782279777527,9.400409761581422,26.38712279777527,11.68815976158142C27.33652279777527,13.97589976158142,27.50432279777527,16.51299976158142,26.86452279777527,18.905899761581423C26.224722797775268,21.29869976158142,24.813122797775268,23.41359976158142,22.84872279777527,24.92229976158142C20.88432279777527,26.430999761581422,18.476922797775266,27.24919976158142,16.00002279777527,27.24999976158142Z" fill="current" fill-opacity="1"/></g></g></svg>