<svg xmlns="http://www.w3.org/2000/svg" xmlns:xlink="http://www.w3.org/1999/xlink" fill="none" version="1.1" width="32" height="32" viewBox="0 0 32 32"><g><g><path d="M15.999994277954102,3C13.428794277954102,3.000000000000001,10.915424277954102,3.7624370000000003,8.777584277954102,5.1909C6.639744277954101,6.61935,4.973504277954102,8.64968,3.9895662779541015,11.02512C3.0056269779541016,13.4006,2.7481832779541016,16.014400000000002,3.2497912779541016,18.5362C3.7513992779541017,21.0579,4.989524277954102,23.3743,6.807614277954102,25.1924C8.625694277954102,27.0105,10.942074277954102,28.2486,13.463794277954102,28.7502C15.985594277954101,29.2518,18.5994942779541,28.9944,20.974894277954103,28.0104C23.350294277954102,27.0265,25.380694277954102,25.3603,26.809094277954102,23.2224C28.237594277954102,21.0846,28.9999942779541,18.571199999999997,28.9999942779541,16C28.9956942779541,12.55351,27.624694277954102,9.2494,25.1875942779541,6.81236C22.7505942779541,4.37532,19.446494277954102,3.00430006,15.999994277954102,3ZM10.500004277954101,17.5C10.203324277954103,17.5,9.9133142779541,17.412,9.666644277954102,17.2472C9.4199742779541,17.0824,9.227714277954101,16.848100000000002,9.114184277954102,16.573999999999998C9.000644277954102,16.2999,8.970944277954102,15.9983,9.0288242779541,15.7074C9.086704277954102,15.4164,9.2295642779541,15.1491,9.439344277954103,14.9393C9.649114277954101,14.7296,9.916394277954101,14.5867,10.207364277954103,14.5288C10.4983342779541,14.4709,10.799934277954101,14.5006,11.074024277954102,14.6142C11.348114277954101,14.7277,11.582384277954102,14.92,11.747204277954102,15.1666C11.912024277954101,15.4133,12.000004277954101,15.7033,12.000004277954101,16C12.000004277954101,16.3978,11.841964277954101,16.779400000000003,11.560664277954102,17.0607C11.279354277954102,17.342,10.8978242779541,17.5,10.500004277954101,17.5ZM15.999994277954102,17.5C15.703294277954102,17.5,15.413294277954101,17.412,15.166694277954102,17.2472C14.919994277954101,17.0824,14.727694277954102,16.848100000000002,14.614194277954102,16.573999999999998C14.500694277954102,16.2999,14.470994277954102,15.9983,14.528794277954102,15.7074C14.586694277954102,15.4164,14.729594277954101,15.1491,14.939294277954101,14.9393C15.149094277954102,14.7296,15.416394277954101,14.5867,15.707394277954101,14.5288C15.998294277954102,14.4709,16.299894277954103,14.5006,16.5739942779541,14.6142C16.848094277954104,14.7277,17.0823942779541,14.92,17.2471942779541,15.1666C17.4119942779541,15.4133,17.4999942779541,15.7033,17.4999942779541,16C17.4999942779541,16.3978,17.3419942779541,16.779400000000003,17.060694277954102,17.0607C16.779394277954104,17.342,16.3977942779541,17.5,15.999994277954102,17.5ZM21.4999942779541,17.5C21.2032942779541,17.5,20.9132942779541,17.412,20.6666942779541,17.2472C20.419994277954103,17.0824,20.2276942779541,16.848100000000002,20.114194277954102,16.573999999999998C20.0006942779541,16.2999,19.970894277954102,15.9983,20.028794277954102,15.7074C20.086694277954102,15.4164,20.229594277954103,15.1491,20.4392942779541,14.9393C20.649094277954102,14.7296,20.9163942779541,14.5867,21.2073942779541,14.5288C21.498294277954102,14.4709,21.799894277954103,14.5006,22.073994277954103,14.6142C22.3480942779541,14.7277,22.5823942779541,14.92,22.7471942779541,15.1666C22.9119942779541,15.4133,22.9999942779541,15.7033,22.9999942779541,16C22.9999942779541,16.3978,22.8419942779541,16.779400000000003,22.560694277954102,17.0607C22.2793942779541,17.342,21.8977942779541,17.5,21.4999942779541,17.5Z" fill="#343330" fill-opacity="1"/></g></g></svg>