<svg xmlns="http://www.w3.org/2000/svg" xmlns:xlink="http://www.w3.org/1999/xlink" fill="none" version="1.1" width="32" height="32" viewBox="0 0 32 32"><g><g><path d="M17.999999046325684,16C17.999999046325684,16.39556,17.882699046325683,16.78224,17.662899046325684,17.11114C17.44319904632568,17.44004,17.130799046325684,17.69638,16.765399046325683,17.84776C16.399899046325686,17.99913,15.997799046325683,18.03874,15.609799046325683,17.961570000000002C15.221859046325683,17.8844,14.865489046325683,17.69392,14.585789046325683,17.41421C14.306079046325683,17.13451,14.115599046325684,16.77814,14.038429046325684,16.39018C13.961259046325683,16.00222,14.000869046325684,15.60009,14.152239046325684,15.23463C14.303619046325684,14.869181,14.559959046325684,14.556824,14.888859046325683,14.337061C15.217759046325684,14.117298,15.604399046325684,14,15.999999046325684,14C16.530399046325684,14,17.03909904632568,14.210714,17.414199046325685,14.585787C17.789299046325684,14.96086,17.999999046325684,15.469570000000001,17.999999046325684,16ZM7.499999046325684,14C7.104439046325684,14,6.717759046325684,14.117298,6.388860046325684,14.337061C6.059962046325683,14.556824,5.803616046325684,14.869181,5.652241046325684,15.23463C5.500865608325683,15.60009,5.4612589463256835,16.00222,5.5384293463256835,16.39018C5.615600046325683,16.77814,5.806081046325684,17.13451,6.085786046325683,17.41421C6.365491046325683,17.69392,6.721859046325683,17.8844,7.109819046325684,17.961570000000002C7.497779046325683,18.03874,7.899919046325683,17.99913,8.265369046325684,17.84776C8.630819046325684,17.69638,8.943179046325684,17.44004,9.162939046325683,17.11114C9.382699046325683,16.78224,9.499999046325684,16.39556,9.499999046325684,16C9.499999046325684,15.469570000000001,9.289289046325683,14.96086,8.914209046325684,14.585787C8.539139046325683,14.210714,8.030429046325683,14,7.499999046325684,14ZM24.499999046325684,14C24.104399046325682,14,23.717799046325684,14.117298,23.388899046325683,14.337061C23.059999046325682,14.556824,22.803599046325683,14.869181,22.652199046325684,15.23463C22.500899046325685,15.60009,22.461299046325685,16.00222,22.538399046325683,16.39018C22.615599046325684,16.77814,22.806099046325684,17.13451,23.085799046325683,17.41421C23.365499046325684,17.69392,23.721899046325685,17.8844,24.109799046325683,17.961570000000002C24.497799046325685,18.03874,24.899899046325682,17.99913,25.265399046325683,17.84776C25.630799046325684,17.69638,25.943199046325685,17.44004,26.162899046325684,17.11114C26.382699046325683,16.78224,26.499999046325684,16.39556,26.499999046325684,16C26.499999046325684,15.469570000000001,26.289299046325684,14.96086,25.914199046325685,14.585787C25.539099046325685,14.210714,25.030399046325684,14,24.499999046325684,14Z" fill="#343330" fill-opacity="1"/></g></g></svg>