<svg xmlns="http://www.w3.org/2000/svg" xmlns:xlink="http://www.w3.org/1999/xlink" fill="none" version="1.1" width="32" height="32" viewBox="0 0 32 32"><g><g><path d="M28,10.50003171875C28,10.50003171875,22.525,10.50003171875,22.525,10.50003171875C22.525,10.50003171875,23.4762,5.26878171875,23.4762,5.26878171875C23.5475,4.87725171875,23.4604,4.47345071875,23.2339,4.14619971875C23.0075,3.81894871875,22.6603,3.59505841875,22.2687,3.52378151875C21.8772,3.45250451875,21.4734,3.53968001875,21.1462,3.7661297187500002C20.8189,3.99258071875,20.595,4.33975571875,20.5238,4.73128171875C20.5238,4.73128171875,19.475,10.50003171875,19.475,10.50003171875C19.475,10.50003171875,14.525,10.50003171875,14.525,10.50003171875C14.525,10.50003171875,15.4762,5.26878171875,15.4762,5.26878171875C15.5115,5.07492171875,15.5083,4.87600171875,15.4667,4.68339171875C15.4251,4.49077471875,15.346,4.30823871875,15.2339,4.14619971875C15.1218,3.9841617187500002,14.9788,3.84579571875,14.8132,3.73900071875C14.6476,3.63220571875,14.4626,3.55907421875,14.2688,3.52378151875C14.0749,3.48848871875,13.876,3.49172570875,13.6834,3.53330801875C13.4907,3.57489021875,13.3082,3.65400371875,13.1462,3.7661297187500002C12.8189,3.99258071875,12.595,4.33975571875,12.5238,4.73128171875C12.5238,4.73128171875,11.475,10.50003171875,11.475,10.50003171875C11.475,10.50003171875,6,10.50003171875,6,10.50003171875C5.602180000000001,10.50003171875,5.2206399999999995,10.65807171875,4.93934,10.93937171875C4.65804,11.220671718750001,4.5,11.60221171875,4.5,12.00003171875C4.5,12.39785171875,4.65804,12.77939171875,4.93934,13.06069171875C5.2206399999999995,13.34199171875,5.602180000000001,13.50001171875,6,13.50001171875C6,13.50001171875,10.93,13.50001171875,10.93,13.50001171875C10.93,13.50001171875,10.02125,18.500011718750002,10.02125,18.500011718750002C10.02125,18.500011718750002,4,18.500011718750002,4,18.500011718750002C3.6021799999999997,18.500011718750002,3.220644,18.65811171875,2.93934,18.93941171875C2.658035,19.22071171875,2.5,19.60221171875,2.5,20.00001171875C2.5,20.39781171875,2.658035,20.77941171875,2.93934,21.06071171875C3.220644,21.34201171875,3.6021799999999997,21.50001171875,4,21.50001171875C4,21.50001171875,9.475,21.50001171875,9.475,21.50001171875C9.475,21.50001171875,8.52375,26.73131171875,8.52375,26.73131171875C8.48766,26.92551171875,8.490300000000001,27.12501171875,8.53151,27.31821171875C8.57272,27.51141171875,8.65169,27.69461171875,8.76389,27.85721171875C8.87609,28.01981171875,9.01931,28.15861171875,9.185310000000001,28.26571171875C9.351320000000001,28.37281171875,9.536850000000001,28.44611171875,9.73125,28.48131171875C9.820039999999999,28.49601171875,9.910029999999999,28.50221171875,10,28.50001171875C10.35126,28.49981171875,10.69131,28.37631171875,10.96086,28.15111171875C11.2304,27.92581171875,11.41236,27.61321171875,11.475,27.26751171875C11.475,27.26751171875,12.525,21.50001171875,12.525,21.50001171875C12.525,21.50001171875,17.475,21.50001171875,17.475,21.50001171875C17.475,21.50001171875,16.5238,26.73131171875,16.5238,26.73131171875C16.4877,26.92551171875,16.490299999999998,27.12501171875,16.5315,27.31821171875C16.572699999999998,27.51141171875,16.651699999999998,27.69461171875,16.7639,27.85721171875C16.8761,28.01981171875,17.0193,28.15861171875,17.185299999999998,28.26571171875C17.351300000000002,28.37281171875,17.5369,28.44611171875,17.731299999999997,28.48131171875C17.8203,28.49811171875,17.9107,28.50651171875,18.0012,28.50631171875C18.3525,28.50601171875,18.6926,28.38261171875,18.9621,28.15731171875C19.2317,27.93211171875,19.4136,27.61941171875,19.4762,27.27381171875C19.4762,27.27381171875,20.525,21.50001171875,20.525,21.50001171875C20.525,21.50001171875,26,21.50001171875,26,21.50001171875C26.3978,21.50001171875,26.7794,21.34201171875,27.0607,21.06071171875C27.342,20.77941171875,27.5,20.39781171875,27.5,20.00001171875C27.5,19.60221171875,27.342,19.22071171875,27.0607,18.93941171875C26.7794,18.65811171875,26.3978,18.500011718750002,26,18.500011718750002C26,18.500011718750002,21.07,18.500011718750002,21.07,18.500011718750002C21.07,18.500011718750002,21.9788,13.50001171875,21.9788,13.50001171875C21.9788,13.50001171875,28,13.50001171875,28,13.50001171875C28.3978,13.50001171875,28.7794,13.34199171875,29.0607,13.06069171875C29.342,12.77939171875,29.5,12.39785171875,29.5,12.00003171875C29.5,11.60221171875,29.342,11.220671718750001,29.0607,10.93937171875C28.7794,10.65807171875,28.3978,10.50003171875,28,10.50003171875ZM18.0212,18.500011718750002C18.0212,18.500011718750002,13.07,18.500011718750002,13.07,18.500011718750002C13.07,18.500011718750002,13.9788,13.50001171875,13.9788,13.50001171875C13.9788,13.50001171875,18.93,13.50001171875,18.93,13.50001171875C18.93,13.50001171875,18.0212,18.500011718750002,18.0212,18.500011718750002Z" fill="current" fill-opacity="1"/></g></g></svg>