<svg xmlns="http://www.w3.org/2000/svg" xmlns:xlink="http://www.w3.org/1999/xlink" fill="none" version="1.1" width="32" height="32" viewBox="0 0 32 32"><g><g><path d="M28,11.250729374999999C28,11.250729374999999,21.625,11.250729374999999,21.625,11.250729374999999C21.625,11.250729374999999,22.7362,5.134479375,22.7362,5.134479375C22.7577,5.036068375,22.7591,4.934340375,22.7404,4.8353663749999996C22.7217,4.736391375,22.6833,4.642197375,22.6274,4.558404375C22.5715,4.474611375,22.4993,4.402936375,22.4151,4.347655375C22.3309,4.292374775,22.2364,4.254620975,22.1373,4.236646875C22.0382,4.218672855,21.9365,4.220846865,21.8382,4.243038875C21.74,4.265230975,21.6472,4.306986275,21.5655,4.365814375C21.4837,4.424641375,21.4146,4.499336375,21.3624,4.585441375C21.3101,4.671545375,21.2757,4.767296375,21.2612,4.866979375C21.2612,4.866979375,20.1012,11.250729374999999,20.1012,11.250729374999999C20.1012,11.250729374999999,13.625,11.250729374999999,13.625,11.250729374999999C13.625,11.250729374999999,14.7362,5.134479375,14.7362,5.134479375C14.7641,4.9421743750000005,14.7163,4.7465533749999995,14.6028,4.588821375C14.4893,4.431090375,14.319,4.323561575,14.1278,4.288886775C13.9366,4.254212075,13.7395,4.295097675,13.5778,4.402931375C13.4162,4.510765375,13.3027,4.677129375,13.2612,4.866979375C13.2612,4.866979375,12.10125,11.250729374999999,12.10125,11.250729374999999C12.10125,11.250729374999999,6,11.250729374999999,6,11.250729374999999C5.80109,11.250729374999999,5.61032,11.329749374999999,5.46967,11.470399375C5.32902,11.611049375,5.25,11.801819375000001,5.25,12.000729374999999C5.25,12.199639375,5.32902,12.390409375,5.46967,12.531059375C5.61032,12.671709375,5.80109,12.750729375,6,12.750729375C6,12.750729375,11.82875,12.750729375,11.82875,12.750729375C11.82875,12.750729375,10.64625,19.250709375,10.64625,19.250709375C10.64625,19.250709375,4,19.250709375,4,19.250709375C3.801088,19.250709375,3.610322,19.329709375,3.46967,19.470409375C3.3290175,19.611009375000002,3.25,19.801809374999998,3.25,20.000709375C3.25,20.199609375,3.3290175,20.390409375,3.46967,20.531009375C3.610322,20.671709375,3.801088,20.750709375,4,20.750709375C4,20.750709375,10.375,20.750709375,10.375,20.750709375C10.375,20.750709375,9.2625,26.867009375,9.2625,26.867009375C9.24446,26.964109375,9.24578,27.063809375,9.26638,27.160409375C9.28699,27.257009375,9.32647,27.348609375,9.382570000000001,27.429909375C9.43867,27.511209375,9.51028,27.580609375,9.59328,27.634209375C9.67629,27.687709375,9.76905,27.724409375,9.86625,27.742009375C9.91045,27.749109375,9.95524,27.752109375,10,27.750709375C10.175419999999999,27.750309375,10.34514,27.688409375,10.479659999999999,27.575809375C10.61417,27.463309375,10.70497,27.307109375,10.73625,27.134509375C10.73625,27.134509375,11.89875,20.750709375,11.89875,20.750709375C11.89875,20.750709375,18.375,20.750709375,18.375,20.750709375C18.375,20.750709375,17.2638,26.867009375,17.2638,26.867009375C17.2457,26.964109375,17.247,27.063809375,17.2676,27.160409375C17.2882,27.257009375,17.3277,27.348609375,17.3838,27.429909375C17.4399,27.511209375,17.511499999999998,27.580609375,17.5945,27.634209375C17.677500000000002,27.687709375,17.7703,27.724409375,17.8675,27.742009375C17.912,27.750509375,17.9572,27.754609375,18.002499999999998,27.754509375C18.1779,27.754109375,18.3476,27.692209375,18.4822,27.579609375C18.6167,27.467009375,18.7075,27.310809375,18.738799999999998,27.138209375C18.738799999999998,27.138209375,19.8988,20.750709375,19.8988,20.750709375C19.8988,20.750709375,26,20.750709375,26,20.750709375C26.1989,20.750709375,26.3897,20.671709375,26.5303,20.531009375C26.671,20.390409375,26.75,20.199609375,26.75,20.000709375C26.75,19.801809374999998,26.671,19.611009375000002,26.5303,19.470409375C26.3897,19.329709375,26.1989,19.250709375,26,19.250709375C26,19.250709375,20.1712,19.250709375,20.1712,19.250709375C20.1712,19.250709375,21.3538,12.750729375,21.3538,12.750729375C21.3538,12.750729375,28,12.750729375,28,12.750729375C28.1989,12.750729375,28.3897,12.671709375,28.5303,12.531059375C28.671,12.390409375,28.75,12.199639375,28.75,12.000729374999999C28.75,11.801819375000001,28.671,11.611049375,28.5303,11.470399375C28.3897,11.329749374999999,28.1989,11.250729374999999,28,11.250729374999999ZM18.6462,19.250709375C18.6462,19.250709375,12.17125,19.250709375,12.17125,19.250709375C12.17125,19.250709375,13.3538,12.750729375,13.3538,12.750729375C13.3538,12.750729375,19.8288,12.750729375,19.8288,12.750729375C19.8288,12.750729375,18.6462,19.250709375,18.6462,19.250709375Z" fill="#343330" fill-opacity="1"/></g></g></svg>