<svg xmlns="http://www.w3.org/2000/svg" xmlns:xlink="http://www.w3.org/1999/xlink" fill="none" version="1.1" width="32" height="32" viewBox="0 0 32 32"><g><g><path d="M22.25,5.25C19.625,5.25,17.3425,6.43375,16,8.4175C14.6575,6.43375,12.375,5.25,9.75,5.25C7.76159,5.25231576,5.8552800000000005,6.043236,4.449260000000001,7.449260000000001C3.0432360000000003,8.85528,2.25231576,10.76159,2.25,12.75C2.249999999999999,16.4,4.525,20.198700000000002,9.0125,24.0387C11.06881,25.791,13.29,27.3399,15.645,28.6637C15.7541,28.7224,15.8761,28.7531,16,28.7531C16.1239,28.7531,16.2459,28.7224,16.355,28.6637C18.71,27.3399,20.9312,25.791,22.9875,24.0387C27.475,20.198700000000002,29.75,16.4,29.75,12.75C29.7477,10.76159,28.9568,8.85528,27.5507,7.449260000000001C26.1447,6.043236,24.2384,5.25231576,22.25,5.25ZM16,27.1388C13.9487,25.955,3.75,19.715,3.75,12.75C3.7516499999999997,11.15921,4.38433,9.63405,5.50919,8.50919C6.63405,7.38433,8.15921,6.75165,9.75,6.75C12.285,6.75,14.4137,8.10375,15.3062,10.283750000000001C15.3628,10.42131,15.4589,10.53896,15.5824,10.62176C15.7059,10.70457,15.8513,10.74877,16,10.74877C16.148699999999998,10.74877,16.2941,10.70457,16.4176,10.62176C16.5411,10.53896,16.6372,10.42131,16.6938,10.283750000000001C17.5863,8.10375,19.715,6.75,22.25,6.75C23.8408,6.75165,25.366,7.38433,26.4908,8.50919C27.6157,9.63405,28.2483,11.15921,28.25,12.75C28.25,19.715,18.051299999999998,25.955,16,27.1388Z" fill="current" fill-opacity="1"/></g></g></svg>