<svg xmlns="http://www.w3.org/2000/svg" xmlns:xlink="http://www.w3.org/1999/xlink" fill="none" version="1.1" width="32" height="32" viewBox="0 0 32 32"><g><g><path d="M28,15.000026971435547C28,15.000026971435547,28,27.000026971435545,28,27.000026971435545C28,27.265226971435546,27.8946,27.519526971435546,27.7071,27.707126971435546C27.5196,27.894626971435546,27.2652,28.000026971435545,27,28.000026971435545C27,28.000026971435545,20,28.000026971435545,20,28.000026971435545C19.7348,28.000026971435545,19.4804,27.894626971435546,19.2929,27.707126971435546C19.1054,27.519526971435546,19,27.265226971435546,19,27.000026971435545C19,27.000026971435545,19,20.500026971435545,19,20.500026971435545C19,20.367426971435545,18.9473,20.240226971435547,18.8536,20.146426971435545C18.7598,20.052726971435547,18.6326,20.000026971435545,18.5,20.000026971435545C18.5,20.000026971435545,13.5,20.000026971435545,13.5,20.000026971435545C13.36739,20.000026971435545,13.24021,20.052726971435547,13.14645,20.146426971435545C13.05268,20.240226971435547,13,20.367426971435545,13,20.500026971435545C13,20.500026971435545,13,27.000026971435545,13,27.000026971435545C13,27.265226971435546,12.89464,27.519526971435546,12.70711,27.707126971435546C12.51957,27.894626971435546,12.26522,28.000026971435545,12,28.000026971435545C12,28.000026971435545,5,28.000026971435545,5,28.000026971435545C4.734784,28.000026971435545,4.48043,27.894626971435546,4.292893,27.707126971435546C4.105357,27.519526971435546,4,27.265226971435546,4,27.000026971435545C4,27.000026971435545,4,15.000026971435547,4,15.000026971435547C4.000245862,14.469626971435547,4.211121,13.961126971435547,4.58625,13.586226971435547C4.58625,13.586226971435547,14.5863,3.5862499714355467,14.5863,3.5862499714355467C14.9613,3.211460971435547,15.4698,3.000926971435547,16,3.000926971435547C16.5302,3.000926971435547,17.0387,3.211460971435547,17.4137,3.5862499714355467C17.4137,3.5862499714355467,27.4137,13.586226971435547,27.4137,13.586226971435547C27.7889,13.961126971435547,27.9998,14.469626971435547,28,15.000026971435547Z" fill="current" fill-opacity="1"/></g></g></svg>