<svg xmlns="http://www.w3.org/2000/svg" xmlns:xlink="http://www.w3.org/1999/xlink" fill="none" version="1.1" width="32" height="32" viewBox="0 0 32 32"><g><g><path d="M27.23749475479126,13.7626C27.23749475479126,13.7626,17.23749475479126,3.762626,17.23749475479126,3.762626C17.07499475479126,3.600105,16.88209475479126,3.471185,16.66969475479126,3.383228C16.45739475479126,3.2952712,16.229794754791257,3.25,15.99999475479126,3.25C15.77019475479126,3.25,15.54259475479126,3.2952712,15.33029475479126,3.383228C15.11789475479126,3.471185,14.92499475479126,3.600105,14.762494754791259,3.762626C14.762494754791259,3.762626,4.76249975479126,13.7626,4.76249975479126,13.7626C4.5995567547912595,13.9248,4.4703697547912595,14.1177,4.38240375479126,14.3301C4.29443705479126,14.5425,4.24943583179126,14.7702,4.24999999424126,15.0001C4.24999999424126,15.0001,4.24999999424126,27.0001,4.24999999424126,27.0001C4.24999999424126,27.199,4.3290175547912595,27.3898,4.469669754791259,27.5305C4.61032175479126,27.6711,4.80108775479126,27.7501,4.99999975479126,27.7501C4.99999975479126,27.7501,12.99999475479126,27.7501,12.99999475479126,27.7501C13.198914754791259,27.7501,13.38967475479126,27.6711,13.530324754791259,27.5305C13.67098475479126,27.3898,13.74999475479126,27.199,13.74999475479126,27.0001C13.74999475479126,27.0001,13.74999475479126,19.7501,13.74999475479126,19.7501C13.74999475479126,19.7501,18.24999475479126,19.7501,18.24999475479126,19.7501C18.24999475479126,19.7501,18.24999475479126,27.0001,18.24999475479126,27.0001C18.24999475479126,27.199,18.32899475479126,27.3898,18.46969475479126,27.5305C18.610294754791262,27.6711,18.801094754791258,27.7501,18.99999475479126,27.7501C18.99999475479126,27.7501,26.99999475479126,27.7501,26.99999475479126,27.7501C27.198894754791258,27.7501,27.38969475479126,27.6711,27.53029475479126,27.5305C27.67099475479126,27.3898,27.74999475479126,27.199,27.74999475479126,27.0001C27.74999475479126,27.0001,27.74999475479126,15.0001,27.74999475479126,15.0001C27.75059475479126,14.7702,27.70559475479126,14.5425,27.61759475479126,14.3301C27.52959475479126,14.1177,27.40039475479126,13.9248,27.23749475479126,13.7626ZM26.24999475479126,26.2501C26.24999475479126,26.2501,19.74999475479126,26.2501,19.74999475479126,26.2501C19.74999475479126,26.2501,19.74999475479126,19.0001,19.74999475479126,19.0001C19.74999475479126,18.8012,19.67099475479126,18.6104,19.53029475479126,18.4698C19.389694754791257,18.3291,19.19889475479126,18.2501,18.99999475479126,18.2501C18.99999475479126,18.2501,12.99999475479126,18.2501,12.99999475479126,18.2501C12.80108475479126,18.2501,12.61032475479126,18.3291,12.46967475479126,18.4698C12.32901475479126,18.6104,12.24999475479126,18.8012,12.24999475479126,19.0001C12.24999475479126,19.0001,12.24999475479126,26.2501,12.24999475479126,26.2501C12.24999475479126,26.2501,5.750004754791259,26.2501,5.750004754791259,26.2501C5.750004754791259,26.2501,5.750004754791259,15.0001,5.750004754791259,15.0001C5.74980475479126,14.9672,5.75611475479126,14.9346,5.76855475479126,14.9042C5.7809947547912595,14.8737,5.79933475479126,14.846,5.82250475479126,14.8226C5.82250475479126,14.8226,15.82249475479126,4.82263,15.82249475479126,4.82263C15.84569475479126,4.79919,15.87339475479126,4.7806,15.90389475479126,4.7679C15.93429475479126,4.75521,15.96699475479126,4.74868,15.99999475479126,4.74868C16.03299475479126,4.74868,16.06569475479126,4.75521,16.09609475479126,4.7679C16.12659475479126,4.7806,16.15429475479126,4.79919,16.17749475479126,4.82263C16.17749475479126,4.82263,26.177494754791258,14.8226,26.177494754791258,14.8226C26.20069475479126,14.846,26.21899475479126,14.8737,26.23139475479126,14.9042C26.24389475479126,14.9346,26.25019475479126,14.9672,26.24999475479126,15.0001C26.24999475479126,15.0001,26.24999475479126,26.2501,26.24999475479126,26.2501Z" fill="#343330" fill-opacity="1"/></g></g></svg>