<svg xmlns="http://www.w3.org/2000/svg" xmlns:xlink="http://www.w3.org/1999/xlink" fill="none" version="1.1" width="32" height="32" viewBox="0 0 32 32"><g><g><path d="M27.75,16.00039375C27.7503,19.08959375,26.534,22.05459375,24.3644,24.25369375C22.1948,26.45279375,19.2464,27.70899375,16.1575,27.75039375C16.1575,27.75039375,16,27.75039375,16,27.75039375C13.0005,27.75659375,10.11354,26.60859375,7.9375,24.54409375C7.86352,24.47709375,7.80366,24.39599375,7.76143,24.30549375C7.7192,24.21509375,7.69545,24.11709375,7.69157,24.01739375C7.6877,23.91759375,7.70377,23.81809375,7.73886,23.72469375C7.77394,23.63119375,7.82733,23.54569375,7.89589,23.47309375C7.96445,23.40059375,8.046800000000001,23.34239375,8.13812,23.30209375C8.22944,23.26179375,8.32789,23.24009375,8.42769,23.23839375C8.5275,23.23659375,8.626660000000001,23.25479375,8.71935,23.29179375C8.81204,23.32889375,8.89641,23.38399375,8.967500000000001,23.45409375C10.4332,24.83619375,12.2737,25.75569375,14.259,26.09779375C16.2442,26.43979375,18.2863,26.18929375,20.13,25.37749375C21.9738,24.56569375,23.5374,23.22849375,24.6255,21.53309375C25.7137,19.83779375,26.2781,17.85929375,26.2483,15.84499375C26.2185,13.83068375,25.5958,11.869803749999999,24.458,10.20735375C23.3202,8.54490375,21.7177,7.25461375,19.8508,6.497673750000001C17.983800000000002,5.74072375,15.9352,5.55071375,13.9609,5.95135375C11.98665,6.35200375,10.17418,7.32555375,8.75,8.75035375C8.75,8.75035375,8.72625,8.77411375,8.72625,8.77411375C8.72625,8.77411375,4.93,12.25035375,4.93,12.25035375C4.93,12.25035375,9,12.25035375,9,12.25035375C9.19891,12.25035375,9.38968,12.32937375,9.53033,12.47003375C9.67098,12.61068375,9.75,12.80144375,9.75,13.00035375C9.75,13.19927375,9.67098,13.39003375,9.53033,13.53068375C9.38968,13.67134375,9.19891,13.75035375,9,13.75035375C9,13.75035375,3,13.75035375,3,13.75035375C2.801088,13.75035375,2.610322,13.67134375,2.46967,13.53068375C2.3290175,13.39003375,2.25,13.19927375,2.25,13.00035375C2.25,13.00035375,2.25,7.00036375,2.25,7.00036375C2.25,6.80144375,2.3290175,6.61068375,2.46967,6.47002375C2.610322,6.32937375,2.801088,6.25036375,3,6.25036375C3.198912,6.25036375,3.3896800000000002,6.32937375,3.53033,6.47002375C3.67098,6.61068375,3.75,6.80144375,3.75,7.00036375C3.75,7.00036375,3.75,11.292853749999999,3.75,11.292853749999999C3.75,11.292853749999999,7.70375,7.67536375,7.70375,7.67536375C9.34865,6.03530375,11.44275,4.91957275,13.7215,4.46913875C16.0002,4.01870475,18.3613,4.25377363,20.5065,5.14464775C22.6517,6.03552375,24.4847,7.54222375,25.7739,9.47440375C27.0632,11.40658375,27.7508,13.67754375,27.75,16.00039375Z" fill="#343330" fill-opacity="1"/></g></g></svg>