<svg xmlns="http://www.w3.org/2000/svg" xmlns:xlink="http://www.w3.org/1999/xlink" fill="none" version="1.1" width="32" height="32" viewBox="0 0 32 32"><g><g><path d="M14.074978099536896,19.803393749999998C15.467778099536895,19.013993749999997,16.560078099536895,17.78579375,17.181478099536896,16.31039375C17.802878099536894,14.83504375,17.918578099536894,13.195483750000001,17.510378099536897,11.647493749999999C17.102178099536896,10.09950375,16.193078099536898,8.73015375,14.924978099536895,7.75306375C13.656778099536895,6.77597075,12.100878099536896,6.246093749999999,10.499998099536896,6.24609375C8.899098099536896,6.24609375,7.343208099536896,6.77597075,6.0750580995368955,7.75306375C4.806918099536896,8.73015375,3.8978380995368958,10.09950375,3.489638099536896,11.647493749999999C3.081438099536896,13.195483750000001,3.197078099536896,14.83504375,3.8185280995368958,16.31039375C4.439968099536896,17.78579375,5.532258099536896,19.013993749999997,6.924998099536896,19.803393749999998C4.343718099536895,20.626293750000002,2.1269280995368955,22.31749375,0.6512500995368957,24.58959375C0.5425111995368957,24.75619375,0.5044033995368957,24.95919375,0.5453097995368957,25.15389375C0.5862161995368957,25.34859375,0.7027860995368957,25.51899375,0.8693750995368957,25.62779375C1.0359640995368957,25.73649375,1.2389260995368958,25.77459375,1.4336130995368959,25.73369375C1.6282980995368959,25.69279375,1.7987580995368957,25.57619375,1.9074980995368958,25.40959375C2.838258099536896,23.97859375,4.111708099536896,22.80259375,5.612248099536896,21.98859375C7.112778099536896,21.17449375,8.792878099536896,20.748093750000002,10.499998099536896,20.748093750000002C12.207078099536895,20.748093750000002,13.887178099536897,21.17449375,15.387778099536895,21.98859375C16.888278099536898,22.80259375,18.161778099536896,23.97859375,19.092478099536894,25.40959375C19.208278099536894,25.55809375,19.375778099536895,25.65749375,19.561478099536895,25.68819375C19.747278099536896,25.71889375,19.937778099536896,25.67859375,20.095178099536895,25.57539375C20.252578099536894,25.47209375,20.365478099536897,25.31339375,20.411278099536897,25.13079375C20.457078099536897,24.94819375,20.432578099536897,24.75499375,20.342478099536894,24.58959375C18.868378099536894,22.31859375,16.653978099536896,20.627593750000003,14.074978099536896,19.803393749999998ZM4.749998099536896,13.499633750000001C4.749998099536896,12.36238375,5.087228099536896,11.25068375,5.719048099536896,10.30510375C6.350868099536895,9.359523750000001,7.248898099536896,8.62252375,8.299568099536895,8.187323750000001C9.350248099536897,7.75212375,10.506378099536896,7.6382537500000005,11.621778099536895,7.86011375C12.737178099536896,8.08198375,13.761678099536896,8.62961375,14.565878099536896,9.43376375C15.369978099536896,10.23792375,15.917678099536896,11.26247375,16.139478099536895,12.37786375C16.361378099536896,13.493253750000001,16.247478099536895,14.64938375,15.812278099536895,15.70006375C15.377078099536895,16.75069375,14.640078099536895,17.64879375,13.694578099536896,18.28059375C12.748978099536895,18.91239375,11.637278099536896,19.249593750000003,10.499998099536896,19.249593750000003C8.975618099536895,19.24769375,7.514228099536896,18.64119375,6.436328099536896,17.56329375C5.358428099536896,16.48539375,4.751988099536896,15.02401375,4.749998099536896,13.499633750000001ZM31.124978099536897,25.62459375C30.958578099536897,25.73329375,30.755778099536897,25.77139375,30.561278099536896,25.73059375C30.366678099536895,25.68979375,30.196278099536897,25.57349375,30.087478099536895,25.40709375C29.158378099536897,23.97589375,27.885878099536896,22.79999375,26.385978099536896,21.98649375C24.885978099536896,21.17299375,23.206378099536895,20.74779375,21.499978099536897,20.749593750000003C21.301078099536895,20.749593750000003,21.110278099536895,20.670593750000002,20.969678099536896,20.52999375C20.828978099536897,20.38929375,20.749978099536897,20.19859375,20.749978099536897,19.999593750000003C20.749978099536897,19.80069375,20.828978099536897,19.60999375,20.969678099536896,19.46929375C21.110278099536895,19.32869375,21.301078099536895,19.249593750000003,21.499978099536897,19.249593750000003C22.346778099536895,19.24879375,23.182778099536897,19.060893749999998,23.948578099536896,18.699493750000002C24.714278099536894,18.33809375,25.390678099536895,17.81199375,25.929578099536897,17.15889375C26.468378099536896,16.50569375,26.856378099536897,15.74165375,27.065678099536896,14.92121375C27.275078099536895,14.100763749999999,27.300578099536896,13.24421375,27.140578099536896,12.41274375C26.980478099536896,11.58128375,26.638778099536896,10.795423750000001,26.139878099536897,10.11132375C25.640878099536895,9.42722375,24.996978099536896,8.86175375,24.254178099536897,8.45532375C23.511378099536895,8.048903750000001,22.687978099536895,7.81154375,21.842778099536897,7.76021375C20.997578099536895,7.70887375,20.151578099536895,7.84484375,19.364978099536895,8.15838375C19.273378099536895,8.19588375,19.175278099536897,8.21489375,19.076278099536896,8.21429375C18.977278099536896,8.21370375,18.879378099536897,8.19351375,18.788278099536896,8.15491375C18.697178099536895,8.11630375,18.614578099536896,8.06003375,18.545278099536894,7.98935375C18.475978099536896,7.91866375,18.421278099536895,7.83496375,18.384578099536895,7.74307375C18.347778099536896,7.65117375,18.329478099536896,7.5529037500000005,18.330878099536896,7.45393375C18.332278099536897,7.35495375,18.353178099536894,7.25723375,18.392478099536895,7.16639175C18.431878099536895,7.07555175,18.488778099536894,6.99339275,18.559978099536895,6.92465275C18.631178099536896,6.85591375,18.715278099536896,6.80195275,18.807478099536894,6.76588175C20.513478099536897,6.08572375,22.414078099536894,6.07839775,24.125378099536896,6.74538375C25.836578099536897,7.41237375,27.230878099536895,8.70395375,28.026578099536895,10.35923375C28.822378099536895,12.01450375,28.960178099536897,13.910103750000001,28.412378099536895,15.66309375C27.864478099536896,17.41609375,26.671678099536894,18.89579375,25.074978099536896,19.803393749999998C27.656278099536895,20.626293750000002,29.873078099536897,22.31749375,31.348778099536897,24.58959375C31.455978099536896,24.75669375,31.492678099536896,24.95939375,31.450778099536898,25.15339375C31.408778099536896,25.34739375,31.291678099536895,25.51679375,31.124978099536897,25.62459375Z" fill="#343330" fill-opacity="1"/></g></g></svg>