<svg xmlns="http://www.w3.org/2000/svg" xmlns:xlink="http://www.w3.org/1999/xlink" fill="none" version="1.1" width="32" height="32" viewBox="0 0 32 32"><g><g><path d="M27,5C27,5,5,5,5,5C4.46957,5.000000000000001,3.960859,5.210714,3.585786,5.585786C3.210714,5.960859,3.0000000000000004,6.46957,3,7C3,7,3,25,3,25C3.0000000000000004,25.5304,3.210714,26.0391,3.585786,26.4142C3.960859,26.7893,4.46957,27,5,27C5,27,27,27,27,27C27.5304,27,28.0391,26.7893,28.4142,26.4142C28.7893,26.0391,29,25.5304,29,25C29,25,29,7,29,7C29,6.46957,28.7893,5.960859,28.4142,5.585786C28.0391,5.210714,27.5304,5.000000000000002,27,5ZM19.5,11C19.7967,11,20.0867,11.08797,20.3334,11.2528C20.58,11.41762,20.7723,11.65189,20.8858,11.92597C20.9993,12.20006,21.0291,12.501660000000001,20.9712,12.792639999999999C20.9133,13.08361,20.7704,13.35088,20.5607,13.56066C20.3509,13.77044,20.0836,13.9133,19.7926,13.97118C19.5017,14.02906,19.2001,13.99935,18.926000000000002,13.88582C18.651899999999998,13.77229,18.4176,13.58003,18.2528,13.33335C18.088,13.08668,18,12.796669999999999,18,12.5C18,12.10218,18.158,11.72064,18.4393,11.43934C18.720599999999997,11.15804,19.1022,11,19.5,11ZM27,25C27,25,5,25,5,25C5,25,5,20.0863,5,20.0863C5,20.0863,10.7925,14.2925,10.7925,14.2925C10.88537,14.19952,10.99566,14.12576,11.11706,14.07544C11.23846,14.02512,11.36858,13.99921,11.5,13.99921C11.63142,13.99921,11.76154,14.02512,11.88294,14.07544C12.00434,14.12576,12.11463,14.19952,12.2075,14.2925C12.2075,14.2925,20.625,22.7075,20.625,22.7075C20.8126,22.8951,21.0671,23.0006,21.3325,23.0006C21.5979,23.0006,21.8524,22.8951,22.04,22.7075C22.2276,22.5199,22.3331,22.2654,22.3331,22C22.3331,21.7346,22.2276,21.4801,22.04,21.2925C22.04,21.2925,19.8325,19.0863,19.8325,19.0863C19.8325,19.0863,21.625,17.2925,21.625,17.2925C21.8125,17.1051,22.0668,16.9998,22.3319,16.9998C22.597,16.9998,22.8512,17.1051,23.0387,17.2925C23.0387,17.2925,27,21.2588,27,21.2588C27,21.2588,27,25,27,25Z" fill="current" fill-opacity="1"/></g></g></svg>