<svg xmlns="http://www.w3.org/2000/svg" xmlns:xlink="http://www.w3.org/1999/xlink" fill="none" version="1.1" width="32" height="32" viewBox="0 0 32 32"><g><g><path d="M26,4.25C26,4.25,6,4.25,6,4.25C5.53587,4.25,5.090752,4.434375,4.762563,4.762563C4.434375,5.090752,4.25,5.53587,4.25,6C4.25,6,4.25,26,4.25,26C4.25,26.4641,4.434375,26.9092,4.762563,27.2374C5.090752,27.5656,5.53587,27.75,6,27.75C6,27.75,26,27.75,26,27.75C26.4641,27.75,26.9092,27.5656,27.2374,27.2374C27.5656,26.9092,27.75,26.4641,27.75,26C27.75,26,27.75,6,27.75,6C27.75,5.53587,27.5656,5.090752,27.2374,4.762563C26.9092,4.434375,26.4641,4.25,26,4.25ZM5.75,26C5.75,26,5.75,6,5.75,6C5.75,5.9337,5.77634,5.87011,5.82322,5.82322C5.87011,5.77634,5.9337,5.75,6,5.75C6,5.75,26,5.75,26,5.75C26.0663,5.75,26.1299,5.77634,26.1768,5.82322C26.2237,5.87011,26.25,5.9337,26.25,6C26.25,6,26.25,16.275,26.25,16.275C26.25,16.275,22.7375,12.7625,22.7375,12.7625C22.575,12.59998,22.3821,12.47106,22.1697,12.3831C21.9574,12.29515,21.7298,12.24987,21.5,12.24987C21.2702,12.24987,21.0426,12.29515,20.8303,12.3831C20.6179,12.47106,20.425,12.59998,20.2625,12.7625C20.2625,12.7625,6.775,26.25,6.775,26.25C6.775,26.25,6,26.25,6,26.25C5.9337,26.25,5.87011,26.2237,5.82322,26.1768C5.77634,26.1299,5.75,26.0663,5.75,26ZM26,26.25C26,26.25,8.89625,26.25,8.89625,26.25C8.89625,26.25,21.3225,13.82375,21.3225,13.82375C21.3457,13.80051,21.3733,13.78207,21.4036,13.76949C21.434,13.7569,21.4665,13.75043,21.4994,13.75043C21.5322,13.75043,21.5648,13.7569,21.5951,13.76949C21.6255,13.78207,21.653,13.80051,21.6763,13.82375C21.6763,13.82375,26.25,18.3962,26.25,18.3962C26.25,18.3962,26.25,26,26.25,26C26.25,26.0663,26.2237,26.1299,26.1768,26.1768C26.1299,26.2237,26.0663,26.25,26,26.25ZM12,14.75C12.5439,14.75,13.07558,14.5887,13.52782,14.2865C13.98005,13.98437,14.3325,13.55488,14.5407,13.05238C14.7488,12.54988,14.8033,11.99695,14.6972,11.4635C14.5911,10.93005,14.3291,10.44005,13.94454,10.05546C13.55995,9.670860000000001,13.06995,9.40895,12.5365,9.30284C12.00305,9.196729999999999,11.45012,9.251190000000001,10.94762,9.45933C10.44512,9.66747,10.01563,10.01995,9.713460000000001,10.47218C9.41128,10.92442,9.25,11.4561,9.25,12C9.25,12.72935,9.539729999999999,13.42882,10.05546,13.94454C10.57118,14.4603,11.27065,14.75,12,14.75ZM12,10.75C12.24723,10.75,12.4889,10.82331,12.69446,10.96066C12.90002,11.09801,13.06024,11.29324,13.15485,11.521650000000001C13.24946,11.75005,13.27421,12.00139,13.22598,12.24386C13.17775,12.48634,13.0587,12.70907,12.88388,12.88388C12.70907,13.0587,12.48634,13.17775,12.24386,13.22598C12.00139,13.27421,11.75005,13.24946,11.521650000000001,13.15485C11.29324,13.06024,11.09801,12.90002,10.96066,12.69446C10.82331,12.4889,10.75,12.24723,10.75,12C10.75,11.668479999999999,10.8817,11.350539999999999,11.116119999999999,11.116119999999999C11.350539999999999,10.8817,11.668479999999999,10.75,12,10.75Z" fill="#343330" fill-opacity="1"/></g></g></svg>