<svg xmlns="http://www.w3.org/2000/svg" xmlns:xlink="http://www.w3.org/1999/xlink" fill="none" version="1.1" width="32" height="32" viewBox="0 0 32 32"><g><g><path d="M14.749993562698364,8.278749999999999C14.749993562698364,8.278749999999999,14.749993562698364,2,14.749993562698364,2C14.749993562698364,1.801088,14.670993562698364,1.610322,14.530293562698365,1.46967C14.389693562698364,1.3290177,14.198893562698364,1.25,13.999993562698364,1.25C13.801093562698364,1.25,13.610293562698365,1.3290177,13.469693562698364,1.46967C13.328993562698365,1.610322,13.249993562698364,1.801088,13.249993562698364,2C13.249993562698364,2,13.249993562698364,8.278749999999999,13.249993562698364,8.278749999999999C10.470683562698365,8.473130000000001,7.875383562698365,9.73897,6.011133562698364,11.8095C4.146880562698364,13.88,3.159301762698364,16.593400000000003,3.2565508226983644,19.3778C3.3537995626983643,22.1622,4.528283562698364,24.8001,6.532443562698364,26.7355C8.536603562698364,28.6709,11.213893562698363,29.7526,13.999993562698364,29.7526C16.786093562698362,29.7526,19.463393562698364,28.6709,21.467593562698365,26.7355C23.471693562698363,24.8001,24.646193562698365,22.1622,24.743493562698365,19.3778C24.840693562698362,16.593400000000003,23.853093562698366,13.88,21.988893562698365,11.8095C20.124593562698365,9.73897,17.529293562698363,8.473130000000001,14.749993562698364,8.278749999999999ZM23.217493562698365,18.25C23.217493562698365,18.25,18.733793562698366,18.25,18.733793562698366,18.25C18.571293562698365,14.1763,17.108793562698366,11.4812,15.938793562698365,9.95625C17.88069356269836,10.37602,19.636293562698363,11.4087,20.946793562698364,12.9019C22.257393562698365,14.3952,23.053393562698364,16.27,23.217493562698365,18.25ZM10.767503562698364,19.75C10.767503562698364,19.75,17.232493562698366,19.75,17.232493562698366,19.75C17.028793562698365,24.4613,14.941293562698364,27.0575,13.999993562698364,28C13.057503562698365,27.0562,10.971253562698365,24.4587,10.767503562698364,19.75ZM10.767503562698364,18.25C10.971253562698365,13.5387,13.058753562698364,10.9425,13.999993562698364,10C14.942493562698365,10.93875,17.028793562698365,13.5363,17.232493562698366,18.25C17.232493562698366,18.25,10.767503562698364,18.25,10.767503562698364,18.25ZM12.061253562698365,9.95625C10.888753562698366,11.4812,9.428753562698365,14.1763,9.266253562698363,18.25C9.266253562698363,18.25,4.7825035626983645,18.25,4.7825035626983645,18.25C4.946643562698364,16.27,5.742653562698364,14.3952,7.053163562698364,12.9019C8.363673562698363,11.4087,10.119333562698365,10.37602,12.061253562698365,9.95625ZM4.7825035626983645,19.75C4.7825035626983645,19.75,9.266253562698363,19.75,9.266253562698363,19.75C9.428753562698365,23.8237,10.891253562698363,26.5188,12.061253562698365,28.0438C10.119333562698365,27.624,8.363673562698363,26.5913,7.053163562698364,25.0981C5.742653562698364,23.6048,4.946643562698364,21.73,4.7825035626983645,19.75ZM15.938793562698365,28.0438C17.111293562698364,26.5188,18.571293562698365,23.8237,18.733793562698366,19.75C18.733793562698366,19.75,23.217493562698365,19.75,23.217493562698365,19.75C23.053393562698364,21.73,22.257393562698365,23.6048,20.946793562698364,25.0981C19.636293562698363,26.5913,17.88069356269836,27.624,15.938793562698365,28.0438ZM31.749993562698364,11C31.749993562698364,11.19891,31.670993562698364,11.3897,31.530293562698365,11.5303C31.389693562698366,11.671,31.198893562698363,11.75,30.999993562698364,11.75C30.999993562698364,11.75,29.749993562698364,11.75,29.749993562698364,11.75C29.749993562698364,11.75,29.749993562698364,13,29.749993562698364,13C29.749993562698364,13.1989,29.670993562698364,13.3897,29.530293562698365,13.5303C29.389693562698366,13.671,29.198893562698363,13.75,28.999993562698364,13.75C28.801093562698366,13.75,28.610293562698363,13.671,28.469693562698364,13.5303C28.328993562698365,13.3897,28.249993562698364,13.1989,28.249993562698364,13C28.249993562698364,13,28.249993562698364,11.75,28.249993562698364,11.75C28.249993562698364,11.75,26.999993562698364,11.75,26.999993562698364,11.75C26.801093562698366,11.75,26.610293562698363,11.671,26.469693562698364,11.5303C26.328993562698365,11.3897,26.249993562698364,11.19891,26.249993562698364,11C26.249993562698364,10.80109,26.328993562698365,10.61032,26.469693562698364,10.46967C26.610293562698363,10.32902,26.801093562698366,10.25,26.999993562698364,10.25C26.999993562698364,10.25,28.249993562698364,10.25,28.249993562698364,10.25C28.249993562698364,10.25,28.249993562698364,9,28.249993562698364,9C28.249993562698364,8.80109,28.328993562698365,8.61032,28.469693562698364,8.46967C28.610293562698363,8.32902,28.801093562698366,8.25,28.999993562698364,8.25C29.198893562698363,8.25,29.389693562698366,8.32902,29.530293562698365,8.46967C29.670993562698364,8.61032,29.749993562698364,8.80109,29.749993562698364,9C29.749993562698364,9,29.749993562698364,10.25,29.749993562698364,10.25C29.749993562698364,10.25,30.999993562698364,10.25,30.999993562698364,10.25C31.198893562698363,10.25,31.389693562698366,10.32902,31.530293562698365,10.46967C31.670993562698364,10.61032,31.749993562698364,10.80109,31.749993562698364,11ZM25.999993562698364,5.75C25.999993562698364,5.75,23.749993562698364,5.75,23.749993562698364,5.75C23.749993562698364,5.75,23.749993562698364,8,23.749993562698364,8C23.749993562698364,8.19891,23.670993562698364,8.38968,23.530293562698365,8.53033C23.389693562698366,8.67098,23.198893562698363,8.75,22.999993562698364,8.75C22.801093562698366,8.75,22.610293562698363,8.67098,22.469693562698364,8.53033C22.328993562698365,8.38968,22.249993562698364,8.19891,22.249993562698364,8C22.249993562698364,8,22.249993562698364,5.75,22.249993562698364,5.75C22.249993562698364,5.75,19.999993562698364,5.75,19.999993562698364,5.75C19.801093562698366,5.75,19.610293562698363,5.67098,19.469693562698364,5.53033C19.328993562698365,5.38968,19.249993562698364,5.19891,19.249993562698364,5C19.249993562698364,4.80109,19.328993562698365,4.61032,19.469693562698364,4.46967C19.610293562698363,4.32902,19.801093562698366,4.25,19.999993562698364,4.25C19.999993562698364,4.25,22.249993562698364,4.25,22.249993562698364,4.25C22.249993562698364,4.25,22.249993562698364,2,22.249993562698364,2C22.249993562698364,1.801088,22.328993562698365,1.610322,22.469693562698364,1.46967C22.610293562698363,1.3290177,22.801093562698366,1.2500000000000002,22.999993562698364,1.25C23.198893562698363,1.25,23.389693562698366,1.3290177,23.530293562698365,1.46967C23.670993562698364,1.610322,23.749993562698364,1.801088,23.749993562698364,2C23.749993562698364,2,23.749993562698364,4.25,23.749993562698364,4.25C23.749993562698364,4.25,25.999993562698364,4.25,25.999993562698364,4.25C26.198893562698363,4.25,26.389693562698366,4.32902,26.530293562698365,4.46967C26.670993562698364,4.61032,26.749993562698364,4.80109,26.749993562698364,5C26.749993562698364,5.19891,26.670993562698364,5.38968,26.530293562698365,5.53033C26.389693562698366,5.67098,26.198893562698363,5.75,25.999993562698364,5.75Z" fill="#343330" fill-opacity="1"/></g></g></svg>