<svg xmlns="http://www.w3.org/2000/svg" xmlns:xlink="http://www.w3.org/1999/xlink" fill="none" version="1.1" width="32" height="32" viewBox="0 0 32 32"><g><g><path d="M14.999989748001099,8.04625C14.999989748001099,8.04625,14.999989748001099,2,14.999989748001099,2C14.999989748001099,1.7347839999999999,14.894689748001099,1.4804300000000001,14.7070897480011,1.292893C14.5195897480011,1.105357,14.265189748001099,1.0000000000000002,13.999989748001099,1C13.734789748001099,1.0000000000000002,13.480389748001098,1.105357,13.292889748001098,1.292893C13.105389748001098,1.4804300000000001,12.999989748001099,1.7347839999999999,12.999989748001099,2C12.999989748001099,2,12.999989748001099,8.04625,12.999989748001099,8.04625C10.1809897480011,8.30359,7.569699748001098,9.63778,5.709299748001099,11.7713C3.8488907480010988,13.9048,2.8825897480010987,16.6734,3.0113930480010986,19.5012C3.1401957480010987,22.329,4.354189748001099,24.9983,6.400849748001098,26.9539C8.4475097480011,28.9094,11.1692697480011,30.0007,13.999989748001099,30.0007C16.8306897480011,30.0007,19.552489748001097,28.9094,21.5991897480011,26.9539C23.6457897480011,24.9983,24.8597897480011,22.329,24.9885897480011,19.5012C25.1173897480011,16.6734,24.151089748001098,13.9048,22.2906897480011,11.7713C20.430289748001098,9.63778,17.8189897480011,8.30359,14.999989748001099,8.04625ZM22.942489748001098,18C22.942489748001098,18,18.971289748001098,18,18.971289748001098,18C18.782489748001097,14.455,17.6224897480011,11.955,16.5412897480011,10.3675C18.2397897480011,10.87054,19.7526897480011,11.8626,20.8910897480011,13.2199C22.029389748001098,14.5773,22.742889748001097,16.239800000000002,22.942489748001098,18ZM16.969989748001097,20C16.719989748001097,24.19,14.953789748001098,26.6187,13.999989748001099,27.635C13.044989748001099,26.6163,11.278749748001099,24.1887,11.0299997480011,20C11.0299997480011,20,16.969989748001097,20,16.969989748001097,20ZM11.458749748001098,10.3675C10.374999748001098,11.955,9.2174997480011,14.455,9.028749748001099,18C9.028749748001099,18,5.057499748001099,18,5.057499748001099,18C5.2570797480010985,16.239800000000002,5.970559748001099,14.5773,7.108939748001099,13.2199C8.247309748001099,11.8626,9.760159748001097,10.87054,11.458749748001098,10.3675ZM5.057499748001099,20C5.057499748001099,20,9.028749748001099,20,9.028749748001099,20C9.2174997480011,23.545,10.3774997480011,26.045,11.458749748001098,27.6325C9.760159748001097,27.1295,8.247309748001099,26.1374,7.108939748001099,24.7801C5.970559748001099,23.4227,5.2570797480010985,21.7602,5.057499748001099,20ZM31.9999897480011,11C31.9999897480011,11.2652,31.8946897480011,11.5196,31.7070897480011,11.7071C31.5195897480011,11.8946,31.2651897480011,12,30.9999897480011,12C30.9999897480011,12,29.9999897480011,12,29.9999897480011,12C29.9999897480011,12,29.9999897480011,13,29.9999897480011,13C29.9999897480011,13.2652,29.8946897480011,13.5196,29.7070897480011,13.7071C29.5195897480011,13.8946,29.2651897480011,14,28.9999897480011,14C28.7347897480011,14,28.480389748001098,13.8946,28.292889748001098,13.7071C28.105389748001098,13.5196,27.9999897480011,13.2652,27.9999897480011,13C27.9999897480011,13,27.9999897480011,12,27.9999897480011,12C27.9999897480011,12,26.9999897480011,12,26.9999897480011,12C26.7347897480011,12,26.480389748001098,11.8946,26.292889748001098,11.7071C26.105389748001098,11.5196,25.9999897480011,11.2652,25.9999897480011,11C25.9999897480011,10.73478,26.105389748001098,10.48043,26.292889748001098,10.29289C26.480389748001098,10.10536,26.7347897480011,10,26.9999897480011,10C26.9999897480011,10,27.9999897480011,10,27.9999897480011,10C27.9999897480011,10,27.9999897480011,9,27.9999897480011,9C27.9999897480011,8.73478,28.105389748001098,8.48043,28.292889748001098,8.29289C28.480389748001098,8.105360000000001,28.7347897480011,8,28.9999897480011,8C29.2651897480011,8,29.5195897480011,8.105360000000001,29.7070897480011,8.29289C29.8946897480011,8.48043,29.9999897480011,8.73478,29.9999897480011,9C29.9999897480011,9,29.9999897480011,10,29.9999897480011,10C29.9999897480011,10,30.9999897480011,10,30.9999897480011,10C31.2651897480011,10,31.5195897480011,10.10536,31.7070897480011,10.29289C31.8946897480011,10.48043,31.9999897480011,10.73478,31.9999897480011,11ZM18.9999897480011,5C18.9999897480011,4.734780000000001,19.105389748001098,4.48043,19.292889748001098,4.29289C19.480389748001098,4.10536,19.7347897480011,4,19.9999897480011,4C19.9999897480011,4,21.9999897480011,4,21.9999897480011,4C21.9999897480011,4,21.9999897480011,2,21.9999897480011,2C21.9999897480011,1.7347839999999999,22.105389748001098,1.4804300000000001,22.292889748001098,1.292893C22.480389748001098,1.105357,22.7347897480011,1.0000000000000002,22.9999897480011,1C23.2651897480011,1.0000000000000004,23.5195897480011,1.105357,23.7070897480011,1.292893C23.8946897480011,1.4804300000000001,23.9999897480011,1.7347839999999999,23.9999897480011,2C23.9999897480011,2,23.9999897480011,4,23.9999897480011,4C23.9999897480011,4,25.9999897480011,4,25.9999897480011,4C26.2651897480011,4,26.5195897480011,4.10536,26.7070897480011,4.29289C26.8946897480011,4.48043,26.9999897480011,4.734780000000001,26.9999897480011,5C26.9999897480011,5.26522,26.8946897480011,5.51957,26.7070897480011,5.70711C26.5195897480011,5.89464,26.2651897480011,6,25.9999897480011,6C25.9999897480011,6,23.9999897480011,6,23.9999897480011,6C23.9999897480011,6,23.9999897480011,8,23.9999897480011,8C23.9999897480011,8.26522,23.8946897480011,8.51957,23.7070897480011,8.70711C23.5195897480011,8.894639999999999,23.2651897480011,9,22.9999897480011,9C22.7347897480011,9,22.480389748001098,8.894639999999999,22.292889748001098,8.70711C22.105389748001098,8.51957,21.9999897480011,8.26522,21.9999897480011,8C21.9999897480011,8,21.9999897480011,6,21.9999897480011,6C21.9999897480011,6,19.9999897480011,6,19.9999897480011,6C19.7347897480011,6,19.480389748001098,5.89464,19.292889748001098,5.70711C19.105389748001098,5.51957,18.9999897480011,5.26522,18.9999897480011,5Z" fill="current" fill-opacity="1"/></g></g></svg>