<svg xmlns="http://www.w3.org/2000/svg" xmlns:xlink="http://www.w3.org/1999/xlink" fill="none" version="1.1" width="32" height="31.916015625" viewBox="0 0 32 31.916015625"><g><g></g><g transform="matrix(0.7009766697883606,-0.7131842374801636,0.7131842374801636,0.7009766697883606,-9.744715135292836,4.085756552913267)"><path d="M19.1587,23.245331493530273C19.1591,21.382021493530274,18.6161,19.559021493530274,17.5962,17.999621493530274C16.5763,16.440231493530273,15.1238,15.212131493530274,13.4165,14.465759493530273C11.7092,13.719385893530273,9.82125,13.487137493530273,7.98396,13.797461493530273C6.14667,14.107784493530273,4.43976,14.947211493530274,3.07231,16.212911493530274C1.70486,17.478621493530273,0.736227,19.115661493530276,0.285055,20.923531493530273C-0.166117,22.731391493530275,-0.0802407,24.631571493530274,0.532164,26.391371493530272C1.14457,28.151171493530274,2.25692,29.694171493530273,3.73296,30.831371493530273C5.20901,31.968571493530273,6.98467,32.65067149353027,8.84246,32.79397149353027C8.84246,32.79397149353027,8.84246,38.965271493530274,8.84246,38.965271493530274C8.84246,39.16067149353027,8.9201,39.34817149353027,9.05829,39.486271493530275C9.19648,39.62447149353027,9.3839,39.70217149353027,9.57934,39.70217149353027C9.77477,39.70217149353027,9.96219,39.62447149353027,10.1004,39.486271493530275C10.2386,39.34817149353027,10.3162,39.16067149353027,10.3162,38.965271493530274C10.3162,38.965271493530274,10.3162,32.79397149353027,10.3162,32.79397149353027C12.7208,32.60587149353027,14.9661,31.518671493530274,16.6049,29.748971493530274C18.2437,27.979371493530273,19.1555,25.65717149353027,19.1587,23.245331493530273ZM9.57934,31.350971493530274C7.9762,31.350971493530274,6.40907,30.875571493530273,5.07611,29.984871493530274C3.74315,29.09427149353027,2.70424,27.828271493530274,2.09075,26.347171493530276C1.47725,24.866071493530274,1.31674,23.236341493530276,1.62949,21.664011493530275C1.94225,20.091681493530274,2.71423,18.647401493530275,3.84782,17.513811493530273C4.9814,16.38022149353027,6.42568,15.608241493530274,7.99801,15.295491493530273C9.57034,14.982731493530274,11.2001,15.143251493530274,12.6812,15.756741493530274C14.1623,16.370231493530273,15.4282,17.409151493530274,16.3189,18.742101493530274C17.2095,20.075061493530274,17.6849,21.642191493530273,17.6849,23.245331493530273C17.6823,25.394271493530276,16.8275,27.454471493530274,15.308,28.97397149353027C13.7885,30.493471493530272,11.7283,31.348371493530273,9.57934,31.350971493530274Z" fill="#343330" fill-opacity="1"/></g></g></svg>