<svg xmlns="http://www.w3.org/2000/svg" xmlns:xlink="http://www.w3.org/1999/xlink" fill="none" version="1.1" width="32" height="32" viewBox="0 0 32 32"><g><g><path d="M16.0003,10.2501C14.8631,10.2501,13.7514,10.587340000000001,12.8058,11.219149999999999C11.8602,11.85097,11.12321,12.749,10.688,13.7997C10.2528,14.8504,10.13893,16.006500000000003,10.3608,17.1219C10.58266,18.237299999999998,11.1303,19.2618,11.93445,20.066C12.7386,20.8701,13.7632,21.4178,14.8785,21.6396C15.9939,21.8615,17.150100000000002,21.7476,18.200699999999998,21.3124C19.2514,20.8772,20.1494,20.1402,20.7813,19.1946C21.4131,18.2491,21.7503,17.1373,21.7503,16.0001C21.7483,14.4757,21.1419,13.01434,20.064,11.93643C18.9861,10.85853,17.5247,10.252089999999999,16.0003,10.2501ZM16.0003,20.2501C15.1597,20.2501,14.338,20.0008,13.6391,19.5339C12.9402,19.0669,12.3955,18.403100000000002,12.07382,17.6265C11.75215,16.849899999999998,11.66799,15.9954,11.83197,15.171C11.99596,14.3466,12.4007,13.5893,12.9951,12.9949C13.5895,12.40053,14.3468,11.99575,15.1712,11.83177C15.9956,11.66778,16.850099999999998,11.75194,17.6267,12.07362C18.4033,12.39529,19.0671,12.94002,19.5341,13.6389C20.0011,14.3378,20.2503,15.1595,20.2503,16.0001C20.2503,17.127299999999998,19.8025,18.2083,19.0055,19.0053C18.2085,19.8023,17.127499999999998,20.2501,16.0003,20.2501ZM29.5003,13.4501C29.4786,13.3456,29.4347,13.24692,29.3718,13.16069C29.3089,13.07446,29.2282,13.00267,29.1353,12.9501C29.1353,12.9501,25.3303,10.77761,25.3303,10.77761C25.3303,10.77761,25.2778,10.68886,25.2778,10.68886C25.2778,10.68886,25.2628,6.40011,25.2628,6.40011C25.2628,6.29177,25.2394,6.18473,25.194,6.08633C25.1487,5.98793,25.0826,5.90052,25.0003,5.8301099999999995C23.6714,4.70645,22.1414,3.8449780000000002,20.4916,3.2913551C20.3924,3.25800577,20.2873,3.24578198,20.1831,3.2554695C20.0789,3.265157,19.9779,3.2965416,19.8866,3.3476052C19.8866,3.3476052,16.0578,5.48261,16.0578,5.48261C16.0578,5.48261,15.9328,5.48261,15.9328,5.48261C15.9328,5.48261,12.11406,3.3451051,12.11406,3.3451051C12.0223,3.2938908,11.92081,3.2625299,11.81615,3.25305504C11.7115,3.24358019,11.60602,3.25620286,11.50656,3.290105C9.85683,3.845341,8.32763,4.70899,7.00031,5.83511C6.91769,5.90515,6.85122,5.99225,6.80548,6.09044C6.75973,6.18862,6.73579,6.29554,6.73531,6.40386C6.73531,6.40386,6.71531,10.696349999999999,6.71531,10.696349999999999C6.69781,10.725100000000001,6.68031,10.755099999999999,6.66406,10.7851C6.66406,10.7851,2.864061,12.94635,2.864061,12.94635C2.7706749999999998,12.99972,2.689859,13.07255,2.627097,13.1599C2.564335,13.24725,2.521096,13.3471,2.500311,13.4526C2.1665629,15.1354,2.1665629,16.8673,2.500311,18.5501C2.52206,18.654600000000002,2.565872,18.7533,2.628817,18.8395C2.691763,18.9257,2.772391,18.997500000000002,2.865311,19.0501C2.865311,19.0501,6.66781,21.2164,6.66781,21.2164C6.66781,21.2164,6.72031,21.3051,6.72031,21.3051C6.72031,21.3051,6.73531,25.5939,6.73531,25.5939C6.7347,25.7034,6.75811,25.8118,6.8039,25.9114C6.84968,26.0109,6.91673,26.0992,7.00031,26.1701C8.329229999999999,27.2938,9.859169999999999,28.1552,11.50906,28.7089C11.60825,28.7422,11.71332,28.7544,11.81751,28.7447C11.92171,28.7351,12.02272,28.7037,12.11406,28.6526C12.11406,28.6526,15.9403,26.5176,15.9403,26.5176C15.9403,26.5176,16.0653,26.5176,16.0653,26.5176C16.0653,26.5176,19.8853,28.6551,19.8853,28.6551C19.9971,28.7169,20.1226,28.7496,20.2503,28.7501C20.3324,28.7505,20.414,28.7369,20.4916,28.7101C22.1391,28.1542,23.6661,27.2905,24.9916,26.1651C25.0742,26.0951,25.1406,26.008,25.1864,25.9098C25.2321,25.8116,25.2561,25.7047,25.2566,25.5964C25.2566,25.5964,25.2766,21.3039,25.2766,21.3039C25.2941,21.2751,25.3116,21.2451,25.3278,21.2151C25.3278,21.2151,29.1303,19.0539,29.1303,19.0539C29.2239,19.0006,29.305,18.9279,29.368,18.8405C29.431,18.7531,29.4744,18.6532,29.4953,18.5476C29.8307,16.8652,29.8324,15.1332,29.5003,13.4501ZM28.0941,17.9239C28.0941,17.9239,24.4153,20.0126,24.4153,20.0126C24.296,20.0809,24.1975,20.1802,24.1303,20.3001C24.0566,20.4251,23.9791,20.5639,23.8978,20.6926C23.8238,20.8111,23.7845,20.9479,23.7841,21.0876C23.7841,21.0876,23.7641,25.2389,23.7641,25.2389C22.7298,26.0675,21.568,26.7231,20.3241,27.1801C20.3241,27.1801,16.6253,25.1101,16.6253,25.1101C16.5135,25.0472,16.3874,25.0141,16.2591,25.0139C16.2591,25.0139,16.2416,25.0139,16.2416,25.0139C16.0866,25.0139,15.9291,25.0139,15.7741,25.0139C15.64,25.0106,15.5074,25.0434,15.3903,25.1089C15.3903,25.1089,11.68156,27.1789,11.68156,27.1789C10.436,26.7241,9.27253,26.0702,8.23656,25.2426C8.23656,25.2426,8.22156,21.0964,8.22156,21.0964C8.22117,20.9567,8.18177,20.8199,8.10781,20.7014C8.027809999999999,20.5764,7.94906,20.4414,7.87531,20.3089C7.8088,20.1889,7.71066,20.0894,7.59156,20.0214C7.59156,20.0214,3.91281,17.9251,3.91281,17.9251C3.69897,16.6511,3.69897,15.3504,3.91281,14.0764C3.91281,14.0764,7.58531,11.98761,7.58531,11.98761C7.70643,11.92007,7.80673,11.82064,7.87531,11.7001C7.94906,11.5751,8.02656,11.43635,8.10781,11.3076C8.18177,11.1891,8.22117,11.052299999999999,8.22156,10.91261C8.22156,10.91261,8.24156,6.76136,8.24156,6.76136C9.274329999999999,5.93319,10.43433,5.27763,11.67656,4.82011C11.67656,4.82011,15.3753,6.89011,15.3753,6.89011C15.492,6.95665,15.6248,6.98953,15.7591,6.985110000000001C15.9141,6.985110000000001,16.0716,6.985110000000001,16.226599999999998,6.985110000000001C16.3607,6.9883299999999995,16.4932,6.95552,16.610300000000002,6.89011C16.610300000000002,6.89011,20.3166,4.82011,20.3166,4.82011C21.5621,5.27482,22.7256,5.92875,23.7616,6.75636C23.7616,6.75636,23.7766,10.90261,23.7766,10.90261C23.777,11.042300000000001,23.8163,11.1791,23.8903,11.2976C23.9703,11.4226,24.0491,11.5576,24.1228,11.6901C24.1893,11.81008,24.2875,11.90952,24.4066,11.9776C24.4066,11.9776,28.0878,14.0751,28.0878,14.0751C28.3029,15.3489,28.3042,16.6496,28.0916,17.9239C28.0916,17.9239,28.0941,17.9239,28.0941,17.9239Z" fill="#343330" fill-opacity="1"/></g></g></svg>