<svg xmlns="http://www.w3.org/2000/svg" xmlns:xlink="http://www.w3.org/1999/xlink" fill="none" version="1.1" width="32" height="32" viewBox="0 0 32 32"><g><g><path d="M29.52996226043701,13.4693C29.52996226043701,13.4693,19.52996226043701,3.469341,19.52996226043701,3.469341C19.425162260437013,3.364584,19.29156226043701,3.2932597,19.146162260437013,3.2643753C19.00076226043701,3.235491,18.85006226043701,3.250342332,18.713062260437013,3.3070537C18.576162260437012,3.363765,18.459062260437012,3.459793,18.376562260437012,3.583008C18.294162260437012,3.706224,18.250162260437012,3.851101,18.249962260437012,3.9993410000000003C18.249962260437012,3.9993410000000003,18.249962260437012,9.274339999999999,18.249962260437012,9.274339999999999C11.440002260437012,9.72309,3.201250260437012,16.1493,2.2587499604370116,24.3568C2.2281402604370117,24.6182,2.2807855604370117,24.8825,2.4091862604370116,25.1122C2.5375862604370116,25.3419,2.7351922604370116,25.5252,2.973855260437012,25.636C3.2125182604370117,25.7468,3.4800622604370117,25.7795,3.738382260437012,25.7294C3.996692260437012,25.6792,4.2326022604370115,25.5489,4.412502260437012,25.3568C5.820002260437011,23.8556,10.875002260437011,19.0743,18.249962260437012,18.7656C18.249962260437012,18.7656,18.249962260437012,23.9993,18.249962260437012,23.9993C18.250162260437012,24.1476,18.294162260437012,24.2925,18.376562260437012,24.4157C18.459062260437012,24.5389,18.576162260437012,24.6349,18.713062260437013,24.6916C18.85006226043701,24.7483,19.00076226043701,24.7632,19.146162260437013,24.7343C19.29156226043701,24.7054,19.425162260437013,24.6341,19.52996226043701,24.5293C19.52996226043701,24.5293,29.52996226043701,14.5293,29.52996226043701,14.5293C29.670462260437013,14.3887,29.74936226043701,14.1981,29.74936226043701,13.9993C29.74936226043701,13.8006,29.670462260437013,13.61,29.52996226043701,13.4693ZM19.749962260437012,22.1893C19.749962260437012,22.1893,19.749962260437012,17.999299999999998,19.749962260437012,17.999299999999998C19.749962260437012,17.8004,19.670962260437012,17.6097,19.530362260437013,17.469C19.38966226043701,17.328400000000002,19.19896226043701,17.249299999999998,18.999962260437012,17.249299999999998C15.533762260437012,17.249299999999998,12.155002260437012,18.1556,8.960002260437012,19.9431C7.097782260437012,20.9892,5.382432260437012,22.2775,3.8587522604370115,23.7743C4.446252260437012,20.4543,6.378752260437012,17.2743,9.358752260437011,14.7406C12.308762260437012,12.24184,15.911262260437011,10.74934,18.999962260437012,10.74934C19.19896226043701,10.74934,19.38966226043701,10.67032,19.530362260437013,10.52967C19.670962260437012,10.38902,19.749962260437012,10.19825,19.749962260437012,9.99934C19.749962260437012,9.99934,19.749962260437012,5.8105899999999995,19.749962260437012,5.8105899999999995C19.749962260437012,5.8105899999999995,27.938762260437013,13.9993,27.938762260437013,13.9993C27.938762260437013,13.9993,19.749962260437012,22.1893,19.749962260437012,22.1893Z" fill="#343330" fill-opacity="1"/></g></g></svg>