<svg xmlns="http://www.w3.org/2000/svg" xmlns:xlink="http://www.w3.org/1999/xlink" fill="none" version="1.1" width="32" height="32" viewBox="0 0 32 32"><g><g><path d="M21.4999942779541,15C21.4999942779541,16.0878,21.1773942779541,17.1512,20.5730942779541,18.0556C19.9686942779541,18.9601,19.1097942779541,19.6651,18.1047942779541,20.0813C17.099794277954103,20.4976,15.993894277954102,20.6065,14.926994277954101,20.3943C13.8600942779541,20.1821,12.880104277954102,19.6583,12.110914277954102,18.8891C11.341724277954102,18.1199,10.817904277954103,17.1399,10.6056842779541,16.073C10.393464277954102,15.0061,10.502384277954102,13.9002,10.9186642779541,12.89524C11.3349442779541,11.89025,12.039894277954101,11.03127,12.9443642779541,10.426919999999999C13.848794277954102,9.822569999999999,14.912194277954102,9.5,15.999994277954102,9.5C17.4581942779541,9.50165,18.856194277954103,10.08165,19.8872942779541,11.11274C20.9183942779541,12.14383,21.4983942779541,13.5418,21.4999942779541,15ZM28.9999942779541,16C28.9999942779541,18.571199999999997,28.237594277954102,21.0846,26.809094277954102,23.2224C25.380694277954102,25.3603,23.350294277954102,27.0265,20.974894277954103,28.0104C18.5994942779541,28.9944,15.985594277954101,29.2518,13.463794277954102,28.7502C10.942074277954102,28.2486,8.625694277954102,27.0105,6.807614277954102,25.1924C4.989524277954102,23.3743,3.7513992779541017,21.0579,3.2497912779541016,18.5362C2.7481832779541016,16.014400000000002,3.0056269779541016,13.4006,3.9895662779541015,11.02512C4.973504277954102,8.64968,6.639744277954101,6.61935,8.777584277954102,5.1909C10.915424277954102,3.7624370000000003,13.428794277954102,3.0000000000000013,15.999994277954102,3C19.4466942779541,3.00363977,22.751194277954102,4.3744499999999995,25.188394277954103,6.81163C27.6255942779541,9.24882,28.996394277954103,12.5533,28.9999942779541,16ZM26.9999942779541,16C26.9983942779541,14.5194,26.6981942779541,13.0544,26.1173942779541,11.69245C25.5365942779541,10.33054,24.687094277954102,9.09974,23.619794277954103,8.07367C22.5523942779541,7.04759,21.288994277954103,6.24732,19.905294277954102,5.7207C18.5214942779541,5.19408,17.0456942779541,4.9519400000000005,15.566294277954102,5.00875C9.678754277954102,5.23625,4.983754277954102,10.14,5.000004277954101,16.0312C5.005644277954102,18.7132,5.994774277954102,21.2998,7.780004277954101,23.3013C8.507024277954102,22.2468,9.430554277954101,21.3423,10.500004277954101,20.6375C10.591184277954103,20.5773,10.699574277954103,20.5486,10.808614277954103,20.5558C10.917644277954102,20.563,11.021314277954101,20.6058,11.103754277954101,20.6775C12.462724277954102,21.8529,14.199494277954102,22.4998,15.996294277954101,22.4998C17.7929942779541,22.4998,19.529794277954103,21.8529,20.8887942779541,20.6775C20.9711942779541,20.6058,21.0748942779541,20.563,21.183894277954103,20.5558C21.2928942779541,20.5486,21.4012942779541,20.5773,21.4924942779541,20.6375C22.563294277954103,21.342,23.4880942779541,22.2464,24.216294277954102,23.3013C26.010294277954102,21.2925,27.001294277954102,18.693199999999997,26.9999942779541,16Z" fill="#343330" fill-opacity="1"/></g></g></svg>