<svg xmlns="http://www.w3.org/2000/svg" xmlns:xlink="http://www.w3.org/1999/xlink" fill="none" version="1.1" width="32" height="32" viewBox="0 0 32 32"><g><g><path d="M28.648975,26.625646875C26.672675,23.210646875,23.570175,20.814346875,19.965175,19.798146875C21.717875,18.907146875000002,23.119375,17.451946875,23.943875,15.666946875C24.768275,13.882046875,24.967475,11.871466875,24.509375,9.959446875000001C24.051275,8.047426875,22.962675,6.3453968750000005,21.418875,5.127816875C19.875175,3.910226875,17.966275,3.2480468749999996,16.000175,3.248046875C14.034075,3.2480468750000004,12.125225,3.910226875,10.581485,5.127816875C9.037735,6.3453968750000005,7.949055,8.047426875,7.490985,9.959446875000001C7.0329049999999995,11.871466875,7.2321349999999995,13.882046875,8.056555,15.666946875C8.880965,17.451946875,10.282505,18.907146875000002,12.035185,19.798146875C8.430185,20.813146875,5.327685,23.209346875,3.351438,26.625646875C3.2971727,26.710946875,3.2607356,26.806446875,3.24431874,26.906246875C3.22790192,27.006046875,3.23184485,27.108146875,3.2559099,27.206446875C3.279975,27.304646875,3.323665,27.397046875,3.384352,27.477946875C3.445039,27.558846875,3.521468,27.626646875,3.609042,27.677346875C3.696616,27.727946875,3.793524,27.760346875,3.893938,27.772546875C3.994351,27.784746875,4.096194,27.776446875,4.193341,27.748246875C4.290485,27.720146875,4.3809249999999995,27.672546875,4.459225,27.608546875C4.537515,27.544446875,4.602055,27.465246875,4.648935,27.375646875C7.050185,23.226846875,11.292685,20.750646875,16.000175,20.750646875C20.707675,20.750646875,24.950175,23.226846875,27.351475,27.375646875C27.398275,27.465246875,27.462875,27.544446875,27.541175,27.608546875C27.619475,27.672546875,27.709875,27.720146875,27.807075,27.748246875C27.904175,27.776446875,28.006075,27.784746875,28.106475,27.772546875C28.206875,27.760346875,28.303775,27.727946875,28.391375,27.677346875C28.478875,27.626646875,28.555375,27.558846875,28.616075,27.477946875C28.676675,27.397046875,28.720375,27.304646875,28.744475,27.206446875C28.768575,27.108146875,28.772475,27.006046875,28.756075,26.906246875C28.739675,26.806446875,28.703175,26.710946875,28.648975,26.625646875ZM8.750185,12.000626875C8.750185,10.566716875000001,9.175395,9.164996875,9.972035,7.972746875C10.768675,6.780486874999999,11.900965,5.851236875,13.225735,5.302506875000001C14.550475,4.753766875,16.008274999999998,4.610196875,17.414575,4.889936875C18.820975,5.169676875,20.112775,5.8601768750000005,21.126675,6.874106875C22.140675,7.888036875,22.831175,9.179856874999999,23.110875,10.586226875000001C23.390575,11.992586875,23.247075,13.450346875,22.698275,14.775046875C22.149575,16.099846875,21.220375,17.232146874999998,20.028075,18.028746875C18.835774999999998,18.825446875,17.434075,19.250646875,16.000175,19.250646875C14.078075,19.248346875,12.235355,18.483746875,10.876225,17.124546875C9.517085,15.765446875,8.752505,13.922746875,8.750185,12.000626875Z" fill="current" fill-opacity="1"/></g></g></svg>