<svg xmlns="http://www.w3.org/2000/svg" xmlns:xlink="http://www.w3.org/1999/xlink" fill="none" version="1.1" width="32" height="32" viewBox="0 0 32 32"><g><g><path d="M28.86622519989014,27.49998203125C28.778425199890137,27.65208203125,28.652225199890136,27.77828203125,28.500125199890135,27.86608203125C28.348025199890138,27.95388203125,28.17562519989014,27.99998203125,28.000025199890135,27.99998203125C28.000025199890135,27.99998203125,4.000000199890136,27.99998203125,4.000000199890136,27.99998203125C3.824550199890137,27.99978203125,3.6522361998901367,27.95348203125,3.500359199890137,27.86558203125C3.3484831998901368,27.77778203125,3.2223901998901368,27.65148203125,3.1347431998901367,27.49958203125C3.0470964998901366,27.34758203125,3.0009801895901367,27.17518203125,3.0010252328548366,26.99968203125C3.001070276090137,26.82428203125,3.0472749998901367,26.65188203125,3.1350001998901367,26.49998203125C5.038745199890137,23.20878203125,7.972495199890137,20.84868203125,11.396245199890137,19.72998203125C9.702705199890136,18.72178203125,8.386935199890136,17.18558203125,7.650985199890137,15.35718203125C6.915035199890137,13.52888203125,6.799605199890136,11.50948203125,7.322425199890136,9.60918203125C7.845245199890137,7.70887203125,8.977405199890136,6.03272203125,10.545035199890137,4.83814203125C12.112665199890136,3.64355203125,14.029125199890137,2.99658203125,16.00002519989014,2.99658203125C17.97092519989014,2.9965820312500004,19.887325199890135,3.64355203125,21.454925199890138,4.83814203125C23.022625199890136,6.03272203125,24.154725199890137,7.70887203125,24.677525199890137,9.60918203125C25.200425199890137,11.50948203125,25.084925199890137,13.52888203125,24.349025199890136,15.35718203125C23.613025199890135,17.18558203125,22.297325199890135,18.72178203125,20.603725199890135,19.72998203125C24.027525199890135,20.84868203125,26.961225199890137,23.20878203125,28.865025199890137,26.49998203125C28.952925199890135,26.65188203125,28.999425199890137,26.82428203125,28.999625199890136,26.99978203125C28.999825199890136,27.17538203125,28.953825199890137,27.34788203125,28.86622519989014,27.49998203125Z" fill="current" fill-opacity="1"/></g></g></svg>