<svg xmlns="http://www.w3.org/2000/svg" xmlns:xlink="http://www.w3.org/1999/xlink" fill="none" version="1.1" width="32" height="32" viewBox="0 0 32 32"><g><g><path d="M15.999994277954102,3.25C13.478294277954102,3.2499999999999996,11.013204277954102,3.997774,8.916474277954102,5.398759999999999C6.819754277954102,6.7997499999999995,5.185554277954101,8.79103,4.220535277954101,11.12079C3.255518437954102,13.4505,3.0030262779541017,16.0141,3.4949872779541016,18.4874C3.9869492779541016,20.9607,5.201264277954102,23.2325,6.984384277954101,25.0156C8.767504277954101,26.7987,11.0393442779541,28.0131,13.512594277954102,28.505C15.985894277954102,28.997,18.549494277954103,28.7445,20.879194277954102,27.7795C23.2089942779541,26.8144,25.2002942779541,25.1802,26.6011942779541,23.0835C28.0021942779541,20.9868,28.7499942779541,18.5217,28.7499942779541,16C28.7459942779541,12.61971,27.4014942779541,9.379,25.0111942779541,6.988770000000001C22.6209942779541,4.59854,19.3802942779541,3.25396981,15.999994277954102,3.25ZM8.930004277954101,24.75C9.663484277954101,23.5303,10.700024277954101,22.5212,11.938884277954102,21.8206C13.177734277954102,21.12,14.576794277954102,20.7518,15.999994277954102,20.7518C17.423194277954103,20.7518,18.8222942779541,21.12,20.0610942779541,21.8206C21.299994277954102,22.5212,22.336494277954102,23.5303,23.069994277954102,24.75C21.0704942779541,26.3714,18.574294277954102,27.2563,15.999994277954102,27.2563C13.425694277954102,27.2563,10.9295442779541,26.3714,8.930004277954101,24.75ZM11.750004277954101,15C11.750004277954101,14.1594,11.999254277954101,13.3377,12.466254277954102,12.63883C12.933254277954102,11.93992,13.596994277954101,11.39518,14.373594277954101,11.073509999999999C15.150194277954101,10.75184,16.0046942779541,10.66768,16.829094277954102,10.83166C17.653594277954102,10.995650000000001,18.410794277954103,11.40042,19.005194277954104,11.9948C19.5995942779541,12.58917,20.004394277954102,13.3464,20.1682942779541,14.1709C20.3322942779541,14.9953,20.248194277954102,15.8498,19.926494277954102,16.6264C19.604794277954102,17.403,19.0600942779541,18.0668,18.3611942779541,18.5337C17.662294277954103,19.000700000000002,16.840594277954104,19.25,15.999994277954102,19.25C14.872794277954101,19.25,13.791794277954102,18.8022,12.994794277954101,18.005200000000002C12.197764277954102,17.208199999999998,11.750004277954101,16.127200000000002,11.750004277954101,15ZM24.188794277954102,23.705C23.010294277954102,21.8727,21.2488942779541,20.4908,19.188794277954102,19.7825C20.215994277954103,19.098300000000002,20.9958942779541,18.101599999999998,21.412994277954102,16.9399C21.830094277954103,15.7783,21.862294277954103,14.5132,21.5048942779541,13.3318C21.147494277954102,12.15035,20.4193942779541,11.115310000000001,19.428194277954102,10.37968C18.437094277954102,9.64404,17.2355942779541,9.24686,16.001294277954102,9.24686C14.766994277954101,9.24686,13.565394277954102,9.64404,12.574284277954101,10.37968C11.583154277954101,11.115310000000001,10.855044277954102,12.15035,10.497614277954103,13.3318C10.140184277954102,14.5132,10.1724042779541,15.7783,10.589514277954102,16.9399C11.006614277954101,18.101599999999998,11.786464277954101,19.098300000000002,12.813754277954102,19.7825C10.753574277954101,20.4908,8.992164277954101,21.8727,7.813754277954102,23.705C6.307284277954102,22.1064,5.301784277954102,20.1017,4.921304277954102,17.938200000000002C4.540814277954102,15.7748,4.802004277954102,13.5474,5.672634277954101,11.53066C6.543264277954101,9.51396,7.985234277954102,7.79624,9.820654277954102,6.58946C11.656084277954102,5.38267,13.804594277954102,4.7396,16.001294277954102,4.7396C18.197894277954102,4.7396,20.3463942779541,5.38267,22.1817942779541,6.58946C24.0172942779541,7.79624,25.4591942779541,9.51396,26.3298942779541,11.53066C27.200494277954103,13.5474,27.461694277954102,15.7748,27.0811942779541,17.938200000000002C26.700694277954103,20.1017,25.6951942779541,22.1064,24.188794277954102,23.705Z" fill="#343330" fill-opacity="1"/></g></g></svg>